<svg width="49" height="48" viewBox="0 0 49 48" fill="none" xmlns="http://www.w3.org/2000/svg">
<path d="M13.5833 30H5.58333C5.05308 29.9994 4.54471 29.7885 4.16976 29.4136C3.79481 29.0386 3.58391 28.5303 3.58333 28V8.66667H26.9167C27.0935 8.66667 27.263 8.59643 27.3881 8.4714C27.5131 8.34638 27.5833 8.17681 27.5833 8C27.5833 7.82319 27.5131 7.65362 27.3881 7.5286C27.263 7.40357 27.0935 7.33333 26.9167 7.33333H3.58333V5.33333C3.58391 4.80308 3.79481 4.29471 4.16976 3.91976C4.54471 3.54481 5.05308 3.33391 5.58333 3.33333H36.25C36.7803 3.33391 37.2886 3.54481 37.6636 3.91976C38.0385 4.29471 38.2494 4.80308 38.25 5.33333V16.6667C38.25 16.8435 38.3202 17.013 38.4453 17.1381C38.5703 17.2631 38.7399 17.3333 38.9167 17.3333C39.0935 17.3333 39.2631 17.2631 39.3881 17.1381C39.5131 17.013 39.5833 16.8435 39.5833 16.6667V5.33333C39.5823 4.4496 39.2308 3.60235 38.6059 2.97746C37.981 2.35256 37.1337 2.00104 36.25 2H5.58333C4.6996 2.00104 3.85235 2.35256 3.22746 2.97746C2.60256 3.60235 2.25104 4.4496 2.25 5.33333V28C2.25104 28.8837 2.60256 29.731 3.22746 30.3559C3.85235 30.9808 4.6996 31.3323 5.58333 31.3333H13.5833C13.7601 31.3333 13.9297 31.2631 14.0547 31.1381C14.1798 31.013 14.25 30.8435 14.25 30.6667C14.25 30.4899 14.1798 30.3203 14.0547 30.1953C13.9297 30.0702 13.7601 30 13.5833 30Z" fill="#435F9C"/>
<path d="M6.91667 4.6665C6.73986 4.6665 6.57029 4.73674 6.44526 4.86177C6.32024 4.98679 6.25 5.15636 6.25 5.33317C6.25 5.50998 6.32024 5.67955 6.44526 5.80457C6.57029 5.9296 6.73986 5.99984 6.91667 5.99984H7.58333C7.76014 5.99984 7.92971 5.9296 8.05474 5.80457C8.17976 5.67955 8.25 5.50998 8.25 5.33317C8.25 5.15636 8.17976 4.98679 8.05474 4.86177C7.92971 4.73674 7.76014 4.6665 7.58333 4.6665H6.91667Z" fill="#435F9C"/>
<path d="M10.2507 4.6665C10.0738 4.6665 9.90427 4.73674 9.77925 4.86177C9.65422 4.98679 9.58398 5.15636 9.58398 5.33317C9.58398 5.50998 9.65422 5.67955 9.77925 5.80457C9.90427 5.9296 10.0738 5.99984 10.2507 5.99984H10.9173C11.0941 5.99984 11.2637 5.9296 11.3887 5.80457C11.5137 5.67955 11.584 5.50998 11.584 5.33317C11.584 5.15636 11.5137 4.98679 11.3887 4.86177C11.2637 4.73674 11.0941 4.6665 10.9173 4.6665H10.2507Z" fill="#435F9C"/>
<path d="M13.5827 4.6665C13.4059 4.6665 13.2363 4.73674 13.1113 4.86177C12.9863 4.98679 12.916 5.15636 12.916 5.33317C12.916 5.50998 12.9863 5.67955 13.1113 5.80457C13.2363 5.9296 13.4059 5.99984 13.5827 5.99984H14.2493C14.4262 5.99984 14.5957 5.9296 14.7208 5.80457C14.8458 5.67955 14.916 5.50998 14.916 5.33317C14.916 5.15636 14.8458 4.98679 14.7208 4.86177C14.5957 4.73674 14.4262 4.6665 14.2493 4.6665H13.5827Z" fill="#435F9C"/>
<path d="M29.5827 7.3335C29.4059 7.3335 29.2363 7.40373 29.1113 7.52876C28.9863 7.65378 28.916 7.82335 28.916 8.00016C28.916 8.17697 28.9863 8.34654 29.1113 8.47157C29.2363 8.59659 29.4059 8.66683 29.5827 8.66683H34.2493C34.4262 8.66683 34.5957 8.59659 34.7208 8.47157C34.8458 8.34654 34.916 8.17697 34.916 8.00016C34.916 7.82335 34.8458 7.65378 34.7208 7.52876C34.5957 7.40373 34.4262 7.3335 34.2493 7.3335H29.5827Z" fill="#435F9C"/>
<path d="M36.2507 7.3335C36.0738 7.3335 35.9043 7.40373 35.7792 7.52876C35.6542 7.65378 35.584 7.82335 35.584 8.00016C35.584 8.17697 35.6542 8.34654 35.7792 8.47157C35.9043 8.59659 36.0738 8.66683 36.2507 8.66683H36.9173C37.0941 8.66683 37.2637 8.59659 37.3887 8.47157C37.5137 8.34654 37.584 8.17697 37.584 8.00016C37.584 7.82335 37.5137 7.65378 37.3887 7.52876C37.2637 7.40373 37.0941 7.3335 36.9173 7.3335H36.2507Z" fill="#435F9C"/>
<path d="M44.2507 27.3335H43.1302C42.8494 26.3045 42.4387 25.3154 41.9079 24.3902L42.7028 23.5959C43.0771 23.2203 43.2873 22.7117 43.2872 22.1814C43.2872 21.6512 43.0769 21.1426 42.7025 20.7671L40.8171 18.8817C40.4359 18.5181 39.9294 18.3153 39.4027 18.3153C38.8759 18.3153 38.3694 18.5181 37.9883 18.8817L37.1937 19.676C36.2684 19.1456 35.2795 18.735 34.2507 18.4539V17.3335C34.2501 16.8032 34.0392 16.2949 33.6642 15.9199C33.2893 15.545 32.7809 15.3341 32.2507 15.3335H29.584C29.0537 15.3341 28.5454 15.545 28.1704 15.9199C27.7955 16.2949 27.5846 16.8032 27.584 17.3335V18.4539C26.5552 18.735 25.5662 19.1456 24.641 19.6759L23.8464 18.8817C23.4653 18.5181 22.9588 18.3153 22.4321 18.3153C21.9054 18.3153 21.399 18.5181 21.0179 18.8817L19.1318 20.7671C18.7575 21.1426 18.5473 21.6513 18.5474 22.1815C18.5475 22.7118 18.7577 23.2204 19.1322 23.5959L19.9268 24.3902C19.396 25.3154 18.9852 26.3045 18.7044 27.3335H17.584C17.0537 27.3341 16.5454 27.545 16.1704 27.9199C15.7955 28.2949 15.5846 28.8032 15.584 29.3335V32.0002C15.5846 32.5304 15.7955 33.0388 16.1704 33.4137C16.5454 33.7887 17.0537 33.9996 17.584 34.0002H18.7044C18.9853 35.0292 19.3961 36.0182 19.9268 36.9435L19.1318 37.7378C18.7575 38.1133 18.5473 38.622 18.5474 39.1522C18.5475 39.6825 18.7577 40.1911 19.1322 40.5665L21.0176 42.452C21.3987 42.8155 21.9052 43.0184 22.432 43.0184C22.9587 43.0184 23.4652 42.8155 23.8464 42.452L24.641 41.6577C25.5662 42.1881 26.5552 42.5987 27.584 42.8797V44.0002C27.5846 44.5304 27.7955 45.0388 28.1704 45.4137C28.5454 45.7887 29.0537 45.9996 29.584 46.0002H32.2507C32.7809 45.9996 33.2893 45.7887 33.6642 45.4137C34.0392 45.0388 34.2501 44.5304 34.2507 44.0002V42.8797C35.2795 42.5987 36.2684 42.1881 37.1937 41.6577L37.9883 42.452C38.3694 42.8156 38.8758 43.0184 39.4025 43.0184C39.9292 43.0184 40.4357 42.8156 40.8167 42.452L42.7028 40.5666C43.0771 40.191 43.2873 39.6824 43.2872 39.1521C43.2872 38.6219 43.0769 38.1133 42.7025 37.7378L41.9079 36.9435C42.4386 36.0182 42.8493 35.0292 43.1302 34.0002H44.2507C44.7809 33.9996 45.2893 33.7887 45.6642 33.4137C46.0392 33.0388 46.2501 32.5304 46.2507 32.0002V29.3335C46.2501 28.8032 46.0392 28.2949 45.6642 27.9199C45.2893 27.545 44.7809 27.3341 44.2507 27.3335ZM44.9173 32.0002C44.9171 32.1769 44.8468 32.3464 44.7219 32.4714C44.5969 32.5964 44.4274 32.6667 44.2507 32.6668H42.6097C42.4586 32.6669 42.312 32.7182 42.1939 32.8125C42.0757 32.9068 41.9932 33.0384 41.9596 33.1857C41.6768 34.4282 41.1846 35.6135 40.5042 36.6909C40.4237 36.8188 40.389 36.9703 40.4058 37.1206C40.4227 37.2708 40.4901 37.4109 40.597 37.5177L41.7594 38.6805C41.8843 38.8057 41.9545 38.9753 41.9545 39.1521C41.9546 39.3289 41.8846 39.4986 41.7598 39.6238L39.8737 41.5093C39.7467 41.6305 39.5779 41.6982 39.4023 41.6982C39.2268 41.6982 39.0579 41.6305 38.931 41.5093L37.7682 40.3465C37.6612 40.24 37.5213 40.1728 37.3712 40.1559C37.2211 40.139 37.0698 40.1734 36.9417 40.2534C35.8645 40.934 34.6791 41.4261 33.4365 41.7085C33.2891 41.742 33.1574 41.8246 33.0631 41.9428C32.9687 42.061 32.9173 42.2077 32.9173 42.3589V44.0002C32.9171 44.1769 32.8468 44.3464 32.7219 44.4714C32.5969 44.5964 32.4274 44.6667 32.2507 44.6668H29.584C29.4072 44.6667 29.2378 44.5964 29.1128 44.4714C28.9878 44.3464 28.9175 44.1769 28.9173 44.0002V42.3589C28.9173 42.2077 28.8659 42.061 28.7716 41.9428C28.6772 41.8246 28.5456 41.742 28.3981 41.7085C27.1555 41.4261 25.9702 40.934 24.8929 40.2534C24.765 40.173 24.6135 40.1385 24.4634 40.1554C24.3132 40.1723 24.1733 40.2397 24.0664 40.3465L22.9036 41.5093C22.7766 41.6306 22.6078 41.6982 22.4321 41.6982C22.2565 41.6982 22.0876 41.6306 21.9606 41.5093L20.0752 39.6239C19.9503 39.4987 19.8802 39.3291 19.8801 39.1523C19.88 38.9754 19.9501 38.8058 20.0749 38.6805L21.2376 37.5178C21.3445 37.4109 21.4119 37.2708 21.4288 37.1206C21.4457 36.9704 21.411 36.8189 21.3304 36.6909C20.65 35.6135 20.1579 34.4282 19.875 33.1857C19.8415 33.0384 19.7589 32.9068 19.6408 32.8125C19.5227 32.7182 19.3761 32.6669 19.2249 32.6668H17.584C17.4072 32.6667 17.2378 32.5964 17.1128 32.4714C16.9878 32.3464 16.9175 32.1769 16.9173 32.0002V29.3335C16.9175 29.1567 16.9878 28.9873 17.1128 28.8623C17.2378 28.7373 17.4072 28.667 17.584 28.6668H19.2249C19.3761 28.6668 19.5227 28.6154 19.6408 28.5212C19.7589 28.4269 19.8415 28.2953 19.875 28.1479C20.1579 26.9054 20.6501 25.7201 21.3307 24.6427C21.4113 24.5148 21.446 24.3633 21.4291 24.2131C21.4123 24.0629 21.3449 23.9228 21.238 23.8159L20.0752 22.6532C19.9503 22.528 19.8802 22.3584 19.8801 22.1816C19.88 22.0047 19.9501 21.8351 20.0749 21.7098L21.9609 19.8244C22.0879 19.7031 22.2567 19.6354 22.4323 19.6354C22.6079 19.6354 22.7767 19.7031 22.9036 19.8244L24.0664 20.9872C24.1733 21.094 24.3132 21.1613 24.4634 21.1782C24.6135 21.1951 24.7649 21.1606 24.8929 21.0803C25.9702 20.3996 27.1555 19.9076 28.3981 19.6252C28.5456 19.5917 28.6772 19.509 28.7716 19.3909C28.8659 19.2727 28.9173 19.126 28.9173 18.9748V17.3335C28.9175 17.1567 28.9878 16.9873 29.1128 16.8623C29.2378 16.7373 29.4072 16.667 29.584 16.6668H32.2507C32.4274 16.667 32.5969 16.7373 32.7219 16.8623C32.8468 16.9873 32.9171 17.1567 32.9173 17.3335V18.9748C32.9174 19.126 32.9687 19.2727 33.0631 19.3908C33.1574 19.509 33.2891 19.5916 33.4365 19.6252C34.6791 19.9075 35.8645 20.3996 36.9417 21.0802C37.0697 21.1606 37.2211 21.1951 37.3713 21.1782C37.5214 21.1613 37.6614 21.0939 37.7682 20.9871L38.931 19.8244C39.058 19.7031 39.2269 19.6354 39.4025 19.6354C39.5781 19.6354 39.747 19.7031 39.874 19.8244L41.7594 21.7098C41.8843 21.835 41.9545 22.0046 41.9545 22.1814C41.9546 22.3582 41.8846 22.5279 41.7598 22.6531L40.5967 23.8159C40.4897 23.9228 40.4223 24.0629 40.4055 24.2131C40.3886 24.3633 40.4233 24.5148 40.5039 24.6427C41.1845 25.7201 41.6767 26.9054 41.9596 28.1479C41.9931 28.2953 42.0757 28.4269 42.1938 28.5212C42.3119 28.6154 42.4586 28.6668 42.6097 28.6668H44.2507C44.4274 28.667 44.5969 28.7373 44.7219 28.8623C44.8468 28.9873 44.9171 29.1567 44.9173 29.3335V32.0002Z" fill="#FF9B00"/>
<path d="M30.9167 24C29.5981 24 28.3092 24.391 27.2129 25.1235C26.1165 25.8561 25.2621 26.8973 24.7575 28.1154C24.2529 29.3336 24.1209 30.6741 24.3781 31.9673C24.6353 33.2605 25.2703 34.4484 26.2026 35.3807C27.135 36.3131 28.3229 36.948 29.6161 37.2052C30.9093 37.4625 32.2497 37.3304 33.4679 36.8259C34.6861 36.3213 35.7273 35.4668 36.4598 34.3705C37.1923 33.2741 37.5833 31.9852 37.5833 30.6667C37.5813 28.8992 36.8783 27.2047 35.6285 25.9549C34.3787 24.705 32.6842 24.002 30.9167 24ZM30.9167 36C29.8618 36 28.8307 35.6872 27.9536 35.1012C27.0766 34.5151 26.393 33.6822 25.9893 32.7076C25.5856 31.7331 25.48 30.6607 25.6858 29.6262C25.8916 28.5916 26.3996 27.6413 27.1454 26.8954C27.8913 26.1496 28.8416 25.6416 29.8762 25.4358C30.9108 25.23 31.9831 25.3356 32.9576 25.7393C33.9322 26.143 34.7651 26.8266 35.3512 27.7036C35.9372 28.5807 36.25 29.6118 36.25 30.6667C36.2484 32.0807 35.686 33.4363 34.6861 34.4361C33.6863 35.436 32.3307 35.9984 30.9167 36Z" fill="#FF9B00"/>
<path d="M16.9971 22.2904C17.1529 22.1347 17.2765 21.95 17.3608 21.7465C17.4452 21.5431 17.4886 21.3251 17.4886 21.1049C17.4886 20.8847 17.4453 20.6666 17.361 20.4632C17.2767 20.2598 17.1531 20.0749 16.9974 19.9193C16.9494 19.8713 16.9167 19.8101 16.9035 19.7435C16.8903 19.6769 16.8971 19.6079 16.9231 19.5452C16.9491 19.4825 16.9931 19.4289 17.0495 19.3912C17.106 19.3534 17.1723 19.3333 17.2402 19.3333C17.6847 19.3329 18.1108 19.1561 18.4251 18.8418C18.7394 18.5275 18.9162 18.1014 18.9167 17.6569V17.0098C18.9162 16.5653 18.7394 16.1392 18.4251 15.8249C18.1108 15.5106 17.6847 15.3338 17.2402 15.3333C17.1723 15.3333 17.106 15.3132 17.0495 15.2755C16.9931 15.2378 16.9491 15.1842 16.9231 15.1215C16.8971 15.0588 16.8903 14.9898 16.9035 14.9232C16.9167 14.8566 16.9494 14.7954 16.9974 14.7474C17.1531 14.5918 17.2766 14.407 17.3609 14.2037C17.4452 14.0003 17.4886 13.7824 17.4886 13.5622C17.4886 13.3421 17.4453 13.1241 17.3611 12.9208C17.2768 12.7174 17.1534 12.5326 16.9977 12.377L16.54 11.9193C16.2207 11.6143 15.7962 11.4442 15.3547 11.4442C14.9131 11.4442 14.4886 11.6143 14.1693 11.9193C14.1212 11.9672 14.0601 11.9999 13.9935 12.0131C13.9269 12.0263 13.8579 12.0195 13.7952 11.9935C13.7325 11.9675 13.6789 11.9235 13.6412 11.8671C13.6035 11.8107 13.5834 11.7443 13.5833 11.6764C13.5829 11.232 13.4061 10.8058 13.0918 10.4915C12.7775 10.1772 12.3514 10.0005 11.9069 10H11.2598C10.8153 10.0005 10.3892 10.1772 10.0749 10.4915C9.76058 10.8058 9.5838 11.232 9.58333 11.6764C9.58333 11.7443 9.56321 11.8106 9.52553 11.867C9.48785 11.9234 9.43429 11.9674 9.37162 11.9934C9.30895 12.0194 9.23998 12.0262 9.17343 12.013C9.10688 11.9998 9.04573 11.9672 8.99772 11.9193C8.67828 11.6143 8.25364 11.4442 7.81201 11.4442C7.37038 11.4442 6.94574 11.6143 6.6263 11.9193L6.16959 12.3763C6.0138 12.5319 5.8902 12.7167 5.80585 12.9201C5.72151 13.1235 5.67809 13.3416 5.67806 13.5618C5.67803 13.782 5.7214 14 5.80568 14.2035C5.88997 14.4069 6.01352 14.5917 6.16927 14.7474C6.21727 14.7954 6.24994 14.8566 6.26317 14.9232C6.2764 14.9898 6.26959 15.0588 6.2436 15.1215C6.2176 15.1842 6.1736 15.2378 6.11714 15.2755C6.06069 15.3132 5.99432 15.3333 5.92643 15.3333C5.48196 15.3338 5.05583 15.5106 4.74154 15.8249C4.42725 16.1392 4.25047 16.5653 4.25 17.0098V17.6569C4.25047 18.1014 4.42725 18.5275 4.74154 18.8418C5.05583 19.1561 5.48196 19.3329 5.92643 19.3333C5.99432 19.3333 6.06069 19.3534 6.11714 19.3912C6.1736 19.4289 6.2176 19.4825 6.2436 19.5452C6.26959 19.6079 6.2764 19.6769 6.26317 19.7435C6.24994 19.8101 6.21727 19.8713 6.16927 19.9193C6.01357 20.0749 5.89005 20.2596 5.80577 20.463C5.72149 20.6663 5.67809 20.8843 5.67806 21.1044C5.67803 21.3246 5.72137 21.5425 5.80559 21.7459C5.88982 21.9493 6.01329 22.1341 6.16895 22.2897L6.62663 22.7474C6.94594 23.0523 7.37048 23.2225 7.81201 23.2225C8.25354 23.2225 8.67808 23.0523 8.99739 22.7474C9.04542 22.6994 9.10659 22.6668 9.17317 22.6536C9.23975 22.6404 9.30875 22.6472 9.37145 22.6732C9.43415 22.6991 9.48775 22.7431 9.52546 22.7996C9.56317 22.856 9.58331 22.9224 9.58333 22.9902C9.5838 23.4347 9.76058 23.8608 10.0749 24.1751C10.3892 24.4894 10.8153 24.6662 11.2598 24.6667H11.9069C12.3514 24.6662 12.7775 24.4894 13.0918 24.1751C13.4061 23.8608 13.5829 23.4347 13.5833 22.9902C13.5833 22.9224 13.6035 22.8561 13.6411 22.7996C13.6788 22.7432 13.7324 22.6993 13.795 22.6733C13.8577 22.6473 13.9267 22.6404 13.9932 22.6536C14.0598 22.6668 14.1209 22.6995 14.1689 22.7474C14.4884 23.0523 14.913 23.2225 15.3547 23.2225C15.7963 23.2225 16.2209 23.0523 16.5404 22.7474L16.9971 22.2904ZM16.0544 21.347L15.5973 21.8047C15.532 21.8672 15.4451 21.9021 15.3547 21.9021C15.2643 21.9021 15.1773 21.8672 15.112 21.8047C14.8775 21.5703 14.5788 21.4107 14.2536 21.346C13.9284 21.2814 13.5913 21.3146 13.285 21.4415C12.9787 21.5684 12.7169 21.7832 12.5326 22.0589C12.3484 22.3346 12.2501 22.6587 12.25 22.9902C12.2499 23.0812 12.2138 23.1684 12.1494 23.2328C12.0851 23.2971 11.9979 23.3333 11.9069 23.3333H11.2598C11.1688 23.3333 11.0816 23.2971 11.0172 23.2328C10.9529 23.1684 10.9167 23.0812 10.9167 22.9902C10.9168 22.6586 10.8186 22.3343 10.6343 22.0585C10.4501 21.7826 10.1882 21.5677 9.88179 21.4407C9.57535 21.3138 9.23815 21.2806 8.91285 21.3454C8.58756 21.4102 8.28879 21.57 8.05436 21.8047C7.98924 21.8673 7.90238 21.9023 7.81201 21.9023C7.72164 21.9023 7.63478 21.8673 7.56966 21.8047L7.11166 21.3463C7.07985 21.3145 7.05463 21.2768 7.03743 21.2352C7.02023 21.1936 7.01139 21.1491 7.01143 21.1041C7.01146 21.0591 7.02036 21.0146 7.03761 20.973C7.05487 20.9315 7.08015 20.8938 7.112 20.862C7.3464 20.6275 7.50601 20.3288 7.57066 20.0036C7.6353 19.6784 7.60208 19.3413 7.47519 19.035C7.3483 18.7287 7.13344 18.4669 6.85777 18.2826C6.5821 18.0984 6.25799 18.0001 5.92643 18C5.83546 17.9999 5.74822 17.9638 5.68389 17.8994C5.61956 17.8351 5.5834 17.7479 5.58333 17.6569V17.0098C5.5834 16.9188 5.61956 16.8316 5.68389 16.7672C5.74822 16.7029 5.83546 16.6667 5.92643 16.6667C6.25799 16.6666 6.5821 16.5683 6.85777 16.384C7.13344 16.1998 7.3483 15.938 7.47519 15.6317C7.60208 15.3254 7.6353 14.9883 7.57066 14.6631C7.50601 14.3379 7.3464 14.0392 7.112 13.8047C7.08009 13.7728 7.05478 13.735 7.03751 13.6934C7.02025 13.6518 7.01138 13.6072 7.01141 13.5621C7.01144 13.517 7.02037 13.4724 7.03769 13.4308C7.05501 13.3892 7.08037 13.3514 7.11233 13.3196L7.56933 12.862C7.63443 12.7991 7.72144 12.7639 7.812 12.7639C7.90256 12.7639 7.98957 12.7991 8.05467 12.862C8.28915 13.0964 8.58788 13.2561 8.91309 13.3208C9.23831 13.3854 9.5754 13.3522 9.88173 13.2253C10.1881 13.0984 10.4499 12.8836 10.6341 12.6079C10.8183 12.3321 10.9167 12.008 10.9167 11.6764C10.9167 11.5855 10.9529 11.4982 11.0172 11.4339C11.0816 11.3696 11.1688 11.3334 11.2598 11.3333H11.9069C11.9979 11.3334 12.0851 11.3696 12.1494 11.4339C12.2138 11.4982 12.2499 11.5855 12.25 11.6764C12.2501 12.008 12.3484 12.3321 12.5327 12.6078C12.7169 12.8835 12.9788 13.0984 13.2852 13.2253C13.5915 13.3522 13.9286 13.3854 14.2538 13.3207C14.579 13.2561 14.8778 13.0964 15.1123 12.862C15.1774 12.7993 15.2643 12.7643 15.3547 12.7643C15.445 12.7643 15.5319 12.7993 15.597 12.862L16.055 13.3203C16.0868 13.3521 16.1121 13.3899 16.1293 13.4315C16.1465 13.473 16.1553 13.5176 16.1553 13.5626C16.1552 13.6076 16.1463 13.6521 16.1291 13.6937C16.1118 13.7352 16.0865 13.7729 16.0547 13.8047C15.8203 14.0392 15.6607 14.3379 15.5961 14.6631C15.5314 14.9883 15.5646 15.3254 15.6915 15.6317C15.8184 15.938 16.0333 16.1998 16.3089 16.384C16.5846 16.5682 16.9087 16.6666 17.2402 16.6667C17.3312 16.6667 17.4184 16.7029 17.4828 16.7672C17.5471 16.8316 17.5833 16.9188 17.5833 17.0098V17.6569C17.5833 17.7479 17.5471 17.8351 17.4828 17.8994C17.4184 17.9638 17.3312 17.9999 17.2402 18C16.9087 18.0001 16.5846 18.0984 16.3089 18.2826C16.0332 18.4669 15.8184 18.7287 15.6915 19.035C15.5646 19.3413 15.5314 19.6784 15.596 20.0036C15.6607 20.3288 15.8203 20.6275 16.0547 20.862C16.0866 20.8938 16.1119 20.9316 16.1292 20.9733C16.1464 21.0149 16.1553 21.0595 16.1553 21.1046C16.1552 21.1496 16.1463 21.1943 16.129 21.2359C16.1117 21.2775 16.0863 21.3153 16.0544 21.347Z" fill="#435F9C"/>
<path d="M11.5827 14.6665C11.0553 14.6665 10.5397 14.8229 10.1012 15.1159C9.66263 15.4089 9.32084 15.8254 9.119 16.3127C8.91717 16.8 8.86436 17.3361 8.96726 17.8534C9.07015 18.3707 9.32413 18.8458 9.69707 19.2188C10.07 19.5917 10.5452 19.8457 11.0624 19.9486C11.5797 20.0515 12.1159 19.9987 12.6032 19.7968C13.0904 19.595 13.5069 19.2532 13.7999 18.8147C14.093 18.3762 14.2494 17.8606 14.2494 17.3332C14.2486 16.6262 13.9674 15.9483 13.4675 15.4484C12.9675 14.9485 12.2897 14.6673 11.5827 14.6665ZM11.5827 18.6665C11.319 18.6665 11.0612 18.5883 10.8419 18.4418C10.6227 18.2953 10.4518 18.0871 10.3508 17.8434C10.2499 17.5998 10.2235 17.3317 10.275 17.0731C10.3264 16.8144 10.4534 16.5768 10.6399 16.3904C10.8263 16.2039 11.0639 16.0769 11.3226 16.0255C11.5812 15.974 11.8493 16.0004 12.0929 16.1013C12.3366 16.2022 12.5448 16.3731 12.6913 16.5924C12.8378 16.8117 12.916 17.0695 12.916 17.3332C12.9156 17.6867 12.775 18.0256 12.525 18.2755C12.2751 18.5255 11.9362 18.6661 11.5827 18.6665Z" fill="#435F9C"/>
</svg>
