<svg width="48" height="48" viewBox="0 0 48 48" fill="none" xmlns="http://www.w3.org/2000/svg">
<g clip-path="url(#clip0_14935_3604)">
<path d="M16.8817 1.40765C13.3015 1.40978 9.83284 2.6532 7.06666 4.92605C4.30047 7.19892 2.40792 10.3606 1.71149 13.8724C1.01506 17.3842 1.55784 21.0288 3.24733 24.1853C4.93682 27.3418 7.66851 29.8148 10.9769 31.183C14.2854 32.5512 17.9659 32.73 21.3913 31.6888C24.8168 30.6476 27.7752 28.4509 29.7626 25.473C31.75 22.4951 32.6434 18.9202 32.2905 15.3574C31.9377 11.7947 30.3604 8.46452 27.8275 5.93431C26.391 4.49622 24.6846 3.35603 22.8063 2.57922C20.928 1.8024 18.9143 1.40426 16.8817 1.40765ZM16.8817 1.40765C16.8817 1.40765 16.8816 1.40765 16.8816 1.40765L16.8818 1.50765L16.8817 1.40765C16.8817 1.40765 16.8817 1.40765 16.8817 1.40765ZM16.8819 33.6535H16.8818C14.1226 33.6535 11.4061 32.9729 8.97278 31.6722C6.53948 30.3714 4.46454 28.4906 2.93178 26.1963C1.39902 23.9021 0.455751 21.2652 0.185536 18.5193C-0.0846781 15.7734 0.326503 13.0033 1.38265 10.4543C2.4388 7.90525 4.10732 5.65606 6.2404 3.90594C8.37348 2.15582 10.9053 0.958797 13.6115 0.420912C16.3177 -0.116973 19.1148 0.0208832 21.755 0.822269C24.3952 1.62366 26.7971 3.06383 28.7477 5.01522L28.7477 5.01527C31.0957 7.36104 32.6948 10.3507 33.3429 13.6057C33.991 16.8608 33.6588 20.2349 32.3883 23.3011C31.1179 26.3672 28.9664 28.9876 26.2061 30.8304C23.4458 32.6732 20.2008 33.6557 16.8819 33.6535Z" fill="#435F9C" stroke="white" stroke-width="0.2"/>
<path d="M25.1451 25.1445L25.1449 25.1447C24.0623 26.2332 22.7746 27.0962 21.3563 27.6837C19.938 28.2712 18.4172 28.5716 16.8821 28.5675H16.8818C14.178 28.5676 11.5579 27.6302 9.46775 25.915C7.37764 24.1998 5.94692 21.813 5.41936 19.1611C4.89181 16.5093 5.30006 13.7566 6.57455 11.3721C7.84905 8.98753 9.91093 7.11866 12.4089 6.08392C14.9068 5.04918 17.6863 4.91259 20.2736 5.69741C22.861 6.48223 25.0962 8.13992 26.5984 10.388C28.1005 12.6361 28.7767 15.3355 28.5117 18.0263C28.2467 20.717 27.0569 23.2327 25.1451 25.1445ZM16.9818 6.50016V6.49902L16.8817 6.49912C14.481 6.50141 12.1553 7.33596 10.3008 8.8606C8.4464 10.3852 7.17789 12.5057 6.71142 14.8606C6.24495 17.2156 6.60938 19.6595 7.74261 21.7759C8.87584 23.8923 10.7078 25.5504 12.9264 26.4677C15.1449 27.385 17.6129 27.5047 19.9099 26.8065C22.2068 26.1083 24.1907 24.6353 25.5235 22.6385C26.8563 20.6418 27.4555 18.2446 27.2192 15.8556C26.9829 13.4665 25.9257 11.2333 24.2275 9.53631C23.2634 8.57129 22.1182 7.80626 20.8575 7.28517C19.6278 6.77684 18.3118 6.51042 16.9818 6.50016Z" fill="#435F9C" stroke="white" stroke-width="0.2"/>
<path d="M32.3916 33.3092L32.3916 33.3092C32.5135 33.4311 32.6788 33.4996 32.8511 33.4997L32.3916 33.3092ZM32.3916 33.3092L27.829 28.7466L27.829 28.7466M32.3916 33.3092L27.829 28.7466M27.829 28.7466L27.8277 28.7454M27.829 28.7466L27.8277 28.7454M27.8277 28.7454C27.7657 28.6854 27.7161 28.6137 27.6821 28.5344C27.648 28.4551 27.6301 28.3698 27.6293 28.2835C27.6286 28.1972 27.645 28.1116 27.6777 28.0317C27.7104 27.9518 27.7586 27.8792 27.8197 27.8182C27.8807 27.7572 27.9533 27.7089 28.0332 27.6762C28.113 27.6436 28.1986 27.6271 28.2849 27.6279C28.3713 27.6286 28.4565 27.6465 28.5358 27.6806C28.6152 27.7147 28.6869 27.7642 28.7468 27.8263L28.7468 27.8263M27.8277 28.7454L28.7468 27.8263M28.7468 27.8263L28.7481 27.8275M28.7468 27.8263L28.7481 27.8275M28.7481 27.8275L33.3103 32.3898L33.3103 32.3898M28.7481 27.8275L33.3103 32.3898M33.3103 32.3898C33.4013 32.4807 33.4633 32.5965 33.4884 32.7226M33.3103 32.3898L33.4884 32.7226M33.4884 32.7226C33.5136 32.8487 33.5008 32.9794 33.4516 33.0982M33.4884 32.7226L33.4516 33.0982M33.4516 33.0982C33.4024 33.217 33.3191 33.3186 33.2123 33.39M33.4516 33.0982L33.2123 33.39M33.2123 33.39C33.1054 33.4615 32.9797 33.4996 32.8512 33.4997L33.2123 33.39Z" fill="#435F9C" stroke="white" stroke-width="0.2"/>
<path d="M43.2796 47.8976H43.28C43.7587 47.8986 44.233 47.8052 44.6756 47.6225C45.1182 47.4399 45.5204 47.1717 45.8591 46.8334C45.8592 46.8333 45.8592 46.8333 45.8592 46.8333L46.8303 45.8622L43.2796 47.8976ZM43.2796 47.8976C42.8003 47.8984 42.3256 47.8046 41.8827 47.6214C41.4398 47.4382 41.0375 47.1692 40.6989 46.83L40.6988 46.83M43.2796 47.8976L40.6988 46.83M40.6988 46.83L29.7845 35.9175C29.6626 35.7956 29.5941 35.6303 29.5941 35.4579C29.5941 35.2856 29.6626 35.1203 29.7845 34.9984L34.9988 29.7859L34.9281 29.7152M40.6988 46.83L34.9281 29.7152M34.9281 29.7152L34.9988 29.7859C35.1207 29.6641 35.286 29.5956 35.4584 29.5956M34.9281 29.7152L35.4584 29.5956M35.4584 29.5956C35.6307 29.5956 35.796 29.6641 35.9179 29.7859M35.4584 29.5956L35.9179 29.7859M35.9179 29.7859L46.8303 40.7002L35.9179 29.7859ZM47.898 43.2812C47.898 42.3134 47.5141 41.3852 46.8304 40.7003L47.898 43.2812ZM47.898 43.2812C47.898 44.2489 47.5141 45.1772 46.8304 45.8621L47.898 43.2812ZM31.2341 35.3857L31.1634 35.4564L31.2341 35.5272L41.6179 45.9109C42.0586 46.3516 42.6563 46.5992 43.2795 46.5992C43.9028 46.5992 44.5005 46.3516 44.9412 45.9109L44.8705 45.8402L44.9412 45.9109L45.9128 44.9393C46.3535 44.4986 46.6011 43.9009 46.6011 43.2776C46.6011 42.6544 46.3535 42.0567 45.9128 41.616L35.5291 31.2322L35.4584 31.1615L35.3876 31.2322L31.2341 35.3857Z" fill="#435F9C" stroke="white" stroke-width="0.2"/>
<path d="M17.5274 19.1514L17.5274 19.1515C17.6492 19.2734 17.8145 19.3419 17.9869 19.3419L17.5274 19.1514ZM17.5274 19.1514L13.8149 15.4389L13.7442 15.3682M17.5274 19.1514L13.7442 15.3682M13.7442 15.3682L13.6734 15.4389M13.7442 15.3682L13.6734 15.4389M13.6734 15.4389L9.96094 19.1514L9.96093 19.1514M13.6734 15.4389L9.96093 19.1514M9.96093 19.1514L9.95972 19.1527M9.96093 19.1514L9.95972 19.1527M9.95972 19.1527C9.89976 19.2148 9.82804 19.2643 9.74874 19.2984C9.66943 19.3324 9.58414 19.3503 9.49783 19.3511C9.41153 19.3518 9.32594 19.3354 9.24605 19.3027C9.16617 19.27 9.0936 19.2218 9.03257 19.1607C8.97154 19.0997 8.92327 19.0271 8.89059 18.9473C8.85791 18.8674 8.84146 18.7818 8.84221 18.6955C8.84296 18.6092 8.86089 18.5239 8.89496 18.4446C8.92902 18.3653 8.97854 18.2935 9.04062 18.2336L9.04063 18.2336M9.95972 19.1527L9.04063 18.2336M9.04063 18.2336L9.04186 18.2324M9.04063 18.2336L9.04186 18.2324M9.04186 18.2324L13.2846 13.9896C13.4065 13.8678 13.5718 13.7993 13.7442 13.7993C13.9165 13.7993 14.0818 13.8678 14.2037 13.9896L17.9162 17.7021L17.9869 17.7728M9.04186 18.2324L17.9869 17.7728M17.9869 17.7728L18.0576 17.7021M17.9869 17.7728L18.0576 17.7021M18.0576 17.7021L21.7701 13.9896L21.7701 13.9896M18.0576 17.7021L21.7701 13.9896M21.7701 13.9896L21.7713 13.9884M21.7701 13.9896L21.7713 13.9884M21.7713 13.9884C21.8313 13.9263 21.903 13.8768 21.9823 13.8427C22.0616 13.8086 22.1469 13.7907 22.2332 13.79C22.3195 13.7892 22.4051 13.8057 22.485 13.8383C22.5649 13.871 22.6375 13.9193 22.6985 13.9803C22.7595 14.0414 22.8078 14.1139 22.8405 14.1938C22.8731 14.2737 22.8896 14.3593 22.8888 14.4456C22.8881 14.5319 22.8702 14.6172 22.8361 14.6965L22.928 14.736M21.7713 13.9884L22.928 14.736M22.928 14.736L22.8361 14.6965C22.802 14.7758 22.7525 14.8475 22.6904 14.9075L22.6904 14.9075M22.928 14.736L22.6904 14.9075M22.6904 14.9075L22.6892 14.9087M22.6904 14.9075L22.6892 14.9087M22.6892 14.9087L18.4464 19.1514L18.4464 19.1515M22.6892 14.9087L18.4464 19.1515M18.4464 19.1515C18.3246 19.2734 18.1593 19.3419 17.9869 19.3419L18.4464 19.1515Z" fill="#FF9A00" stroke="white" stroke-width="0.2"/>
<path d="M21.771 13.9896L21.771 13.9896L17.5286 18.2324C17.4377 18.3233 17.3758 18.4391 17.3508 18.5651C17.3257 18.6912 17.3386 18.8219 17.3878 18.9406C17.4369 19.0594 17.5202 19.1609 17.6271 19.2323C17.734 19.3037 17.8596 19.3419 17.9881 19.3419L21.771 13.9896ZM21.771 13.9896L21.7722 13.9884M21.771 13.9896L21.7722 13.9884M21.7722 13.9884C21.8321 13.9263 21.9039 13.8768 21.9832 13.8427C22.0625 13.8086 22.1478 13.7907 22.2341 13.79C22.3204 13.7892 22.406 13.8057 22.4858 13.8383C22.5657 13.871 22.6383 13.9193 22.6993 13.9803C22.7604 14.0414 22.8086 14.1139 22.8413 14.1938C22.874 14.2737 22.8904 14.3593 22.8897 14.4456C22.8889 14.5319 22.871 14.6172 22.8369 14.6965C22.8029 14.7758 22.7534 14.8475 22.6913 14.9075L22.6913 14.9075M21.7722 13.9884L22.6913 14.9075M22.6913 14.9075L22.69 14.9087M22.6913 14.9075L22.69 14.9087M22.69 14.9087L18.4477 19.1514L18.4477 19.1515M22.69 14.9087L18.4477 19.1515M18.4477 19.1515C18.3258 19.2734 18.1605 19.3419 17.9881 19.3419L18.4477 19.1515Z" fill="#FF9A00" stroke="white" stroke-width="0.2"/>
<path d="M19.1447 14.0867L22.7672 13.1162C22.7672 13.1162 22.7672 13.1162 22.7672 13.1162C22.8774 13.0867 22.9934 13.0868 23.1036 13.1163C23.2137 13.1459 23.3142 13.2039 23.3948 13.2845C23.4755 13.3652 23.5335 13.4656 23.5631 13.5758C23.5926 13.686 23.5926 13.802 23.5631 13.9122L22.5915 17.5342L22.5915 17.5343C22.5546 17.6724 22.4732 17.7945 22.36 17.8817C22.2468 17.9688 22.108 18.0163 21.9652 18.0166C21.8656 18.0162 21.7675 17.993 21.6782 17.9488C21.5889 17.9046 21.511 17.8404 21.4503 17.7613C21.3896 17.6822 21.3479 17.5903 21.3283 17.4926C21.3087 17.3949 21.3118 17.294 21.3373 17.1977C21.3373 17.1977 21.3373 17.1976 21.3373 17.1976L21.9713 14.8301L22.0161 14.6628L21.8489 14.7077L19.4815 15.3422L19.4815 15.3422L19.48 15.3426C19.397 15.3662 19.3103 15.3731 19.2246 15.3629C19.139 15.3527 19.0563 15.3255 18.9813 15.283C18.9063 15.2405 18.8405 15.1835 18.7877 15.1153C18.735 15.0471 18.6963 14.9691 18.6739 14.8859C18.6516 14.8026 18.6461 14.7157 18.6576 14.6303C18.6692 14.5448 18.6977 14.4625 18.7413 14.3882C18.785 14.3139 18.843 14.249 18.912 14.1973C18.981 14.1456 19.0596 14.1081 19.1433 14.0871L19.1433 14.0871L19.1447 14.0867Z" fill="#FF9A00" stroke="white" stroke-width="0.2"/>
</g>
<defs>
<clipPath id="clip0_14935_3604">
<rect width="48" height="48" fill="white"/>
</clipPath>
</defs>
</svg>
