<svg width="48" height="48" viewBox="0 0 48 48" fill="none" xmlns="http://www.w3.org/2000/svg">
<g clip-path="url(#clip0_14935_3728)">
<path d="M11.5231 34.9601C11.3906 34.5386 10.9412 34.3039 10.5197 34.4364C10.0978 34.569 9.86347 35.0183 9.99604 35.4402L10.7504 37.84C10.8552 38.1733 11.1639 38.3999 11.5129 38.4003C11.5942 38.3999 11.6751 38.3875 11.7528 38.3633C11.9553 38.2996 12.1241 38.1582 12.2222 37.97C12.3204 37.7821 12.3398 37.5624 12.2761 37.3603L11.5231 34.9601Z" fill="#435F9C"/>
<path d="M15.1904 30.3998H16.7904C17.2324 30.3998 17.5906 30.0416 17.5906 29.6C17.5906 29.158 17.2324 28.7998 16.7904 28.7998H15.1904C14.7488 28.7998 14.3906 29.158 14.3906 29.6C14.3906 30.0416 14.7488 30.3998 15.1904 30.3998Z" fill="#435F9C"/>
<path d="M8.99151 32.24C9.09661 32.5732 9.40532 32.7999 9.75469 32.7999C9.83635 32.7996 9.91729 32.7875 9.99492 32.7629C10.1971 32.6996 10.3663 32.5579 10.464 32.37C10.5622 32.1818 10.5816 31.9624 10.5179 31.7599L10.0909 30.3998H11.9908C12.4328 30.3998 12.7909 30.0416 12.7909 29.6C12.7909 29.158 12.4328 28.7998 11.9908 28.7998H9.00139C8.74651 28.7998 8.50701 28.921 8.35613 29.1265C8.20562 29.3319 8.16167 29.5967 8.23784 29.8398L8.99151 32.24Z" fill="#435F9C"/>
<path d="M15.9902 34.4001C15.9902 35.6947 17.1709 36.2843 18.0326 36.7201C18.7101 37.0544 19.1902 37.317 19.1902 37.6001C19.1631 38.0304 18.8203 38.3732 18.39 38.4003C17.9484 38.4003 17.5902 38.0421 17.5902 37.6001C17.5902 37.1584 17.2321 36.8003 16.79 36.8003C16.3484 36.8003 15.9902 37.1584 15.9902 37.6001C15.9902 38.9258 17.0647 40.0002 18.39 40.0002C19.7018 39.9669 20.7568 38.9115 20.7902 37.6001C20.7902 36.3055 19.6095 35.7159 18.7478 35.2802C18.0703 34.9458 17.5902 34.6832 17.5902 34.4001C17.6173 33.9698 17.9601 33.6271 18.39 33.6C18.832 33.6 19.1902 33.9581 19.1902 34.4001C19.1902 34.8418 19.5483 35.2 19.99 35.2C20.432 35.2 20.7902 34.8418 20.7902 34.4001C20.7902 33.0745 19.7157 32 18.39 32C17.0786 32.0333 16.0236 33.0887 15.9902 34.4001Z" fill="#FF9B00"/>
<path d="M23.9906 40.0002H25.5906C26.0326 40.0002 26.3907 39.6421 26.3907 39.2001C26.3907 38.7584 26.0326 38.4003 25.5906 38.4003H23.9906V36.8003H25.5906C26.0326 36.8003 26.3907 36.4418 26.3907 36.0001C26.3907 35.5585 26.0326 35.2 25.5906 35.2H23.9906V33.6H25.5906C26.0326 33.6 26.3907 33.2418 26.3907 32.8002C26.3907 32.3582 26.0326 32 25.5906 32H23.9906C23.1069 32 22.3906 32.7163 22.3906 33.6V38.4003C22.3906 39.2839 23.1069 40.0002 23.9906 40.0002Z" fill="#FF9B00"/>
<path d="M30.7903 40.0002C32.3364 40.0002 33.5903 38.7463 33.5903 37.2002V34.8C33.5903 33.2539 32.3364 32 30.7903 32C29.2438 32 27.9902 33.2539 27.9902 34.8V37.2002C27.9902 37.9429 28.285 38.6548 28.8102 39.1799C29.3353 39.7051 30.0476 40.0002 30.7903 40.0002ZM29.5902 34.8C29.5902 34.1372 30.1274 33.6 30.7903 33.6C31.4528 33.6 31.99 34.1372 31.99 34.8V37.2002C31.99 37.863 31.4528 38.4003 30.7903 38.4003C30.1274 38.4003 29.5902 37.863 29.5902 37.2002V34.8Z" fill="#FF9B00"/>
<path d="M1.72216 41.5199C1.73425 41.5862 1.75476 41.6506 1.78295 41.7122L4.06994 46.6135C4.46508 47.4565 5.3103 47.9963 6.24121 48H41.7388C42.6715 47.9974 43.5189 47.4573 43.9148 46.6128L46.1974 41.7096C46.2252 41.6484 46.2457 41.584 46.2582 41.5177C46.6449 39.3992 46.1538 37.2144 44.8981 35.465L42.4181 32.0175L43.0395 30.0385C43.3622 29.02 43.1754 27.9086 42.5382 27.0513C41.8516 26.1328 40.7701 25.5941 39.6235 25.6H37.6291C36.5884 24.4797 35.329 23.5847 33.9286 22.9706C32.2964 22.2631 30.9604 21.6368 29.9563 21.1128L29.9475 21.1066C29.5011 20.8729 29.1605 20.6799 28.895 20.5199C29.5945 19.6198 30.1259 18.601 30.4635 17.5118C30.7488 17.4265 31.0172 17.2932 31.2582 17.1185C31.3845 17.41 31.672 17.5994 31.9899 17.6001H34.39C35.2737 17.6001 35.99 16.8838 35.99 16.0001V12.8002C35.99 11.9165 35.2737 11.1998 34.39 11.1998H34.1934C34.6925 8.62024 34.0842 5.94946 32.5172 3.84009C30.6422 1.36414 27.6133 0 23.99 0C20.3667 0 17.3381 1.36414 15.4628 3.84009C13.8943 5.94873 13.2849 8.61951 13.783 11.1998H13.59C12.7063 11.1998 11.99 11.9165 11.99 12.8002V16.0001C11.99 16.8838 12.7063 17.6001 13.59 17.6001H15.7037C16.3863 18.0751 17.147 18.427 17.9508 18.6401C18.2405 19.3158 18.6224 19.9486 19.0853 20.5199C18.8195 20.6799 18.4789 20.8729 18.0325 21.1066L18.0237 21.1128C17.0195 21.6368 15.6836 22.2631 14.0518 22.9706C12.651 23.5847 11.3916 24.4797 10.3508 25.6H8.35644C7.21166 25.5956 6.13208 26.1339 5.44689 27.0513C4.80932 27.9086 4.62292 29.02 4.94519 30.0385L5.56701 32.0175L3.08666 35.465C1.82873 37.2144 1.33618 39.3999 1.72216 41.5199ZM9.5902 45.5999C9.5902 45.1582 9.94836 44.8 10.39 44.8H37.59C38.032 44.8 38.3901 45.1582 38.3901 45.5999C38.3901 46.0419 38.032 46.4 37.59 46.4H10.39C9.94836 46.4 9.5902 46.0419 9.5902 45.5999ZM43.5966 36.3999C44.5791 37.767 44.9768 39.4688 44.7021 41.1295L42.462 45.9375C42.3298 46.2191 42.0475 46.3997 41.7366 46.4008H39.8531C39.8773 46.3337 39.8901 46.2609 39.9077 46.1913C39.9198 46.144 39.9355 46.0994 39.9443 46.051C39.974 45.9027 39.989 45.7515 39.9901 45.5999C39.9872 45.4054 39.9604 45.212 39.9099 45.0242C39.8964 44.9689 39.8773 44.9176 39.8605 44.8641C39.8184 44.7319 39.7649 44.6038 39.7004 44.4807C39.6748 44.4327 39.6525 44.3848 39.6206 44.3394C39.5247 44.1812 39.4111 44.0343 39.2819 43.9017C39.1504 43.7736 39.0046 43.6611 38.8475 43.5663C38.8292 43.5553 38.8157 43.5385 38.7974 43.5271L41.8131 33.9272L43.5966 36.3999ZM35.27 25.6H28.4702C29.277 24.921 29.8706 24.0231 30.179 23.0145C31.059 23.4434 32.0909 23.9169 33.2987 24.4391C34.0007 24.7445 34.6625 25.1342 35.27 25.6ZM19.2622 22.2631L19.271 22.2583C19.4709 22.1481 19.6573 22.0415 19.8309 21.9382L19.9221 21.8848C20.1019 21.776 20.2693 21.6705 20.4132 21.572L20.738 21.7247C20.7955 21.7518 20.8629 21.7848 20.9171 21.8097C21.0292 21.8617 21.1291 21.9049 21.2277 21.9489L21.3979 22.0239C21.4862 22.0609 21.5668 22.0906 21.647 22.121C21.6957 22.1393 21.7491 22.1609 21.7956 22.1777C21.8755 22.2034 21.9469 22.2224 22.0205 22.2433C22.0644 22.2554 22.1117 22.2711 22.1556 22.2817C22.2307 22.2993 22.3091 22.311 22.386 22.3231C22.4292 22.3304 22.4717 22.3407 22.5164 22.3466C22.6013 22.3575 22.6947 22.3641 22.7877 22.3704C22.8317 22.3704 22.8675 22.3792 22.9181 22.3817C23.0243 22.3872 23.1477 22.3898 23.2707 22.392H23.3989H23.994H24.5902H24.7125C24.8381 22.392 24.963 22.3872 25.0707 22.3817C25.115 22.3817 25.1509 22.3744 25.1934 22.3711C25.2893 22.3641 25.3852 22.3575 25.4717 22.3466C25.5142 22.3407 25.5515 22.3319 25.5947 22.325C25.6749 22.3121 25.7548 22.2993 25.835 22.2817C25.8763 22.2711 25.9203 22.2568 25.9628 22.2448C26.0389 22.2239 26.1147 22.2041 26.1949 22.1766C26.2389 22.1616 26.2902 22.1407 26.3363 22.1232C26.4165 22.092 26.5022 22.0616 26.5923 22.0232C26.6428 22.0023 26.7029 21.9745 26.7523 21.951C26.8523 21.9071 26.9548 21.8624 27.0724 21.809L27.2438 21.7288L27.5748 21.5687C27.7187 21.6672 27.8861 21.7727 28.0659 21.8815L28.1571 21.9353C28.3274 22.0364 28.5142 22.1433 28.7174 22.2554L28.7262 22.2601C28.3387 24.1696 26.3645 25.6 23.99 25.6C21.6155 25.6 19.6412 24.1696 19.2622 22.2631ZM18.1749 8.78394C18.183 8.74072 18.1932 8.69751 18.202 8.6543C18.2203 8.56384 18.2397 8.47375 18.2635 8.3833C18.2771 8.33276 18.2932 8.28223 18.3086 8.23206C18.3331 8.15186 18.3595 8.06726 18.3884 7.98486C18.4075 7.93286 18.4283 7.88086 18.4492 7.82483C18.4822 7.74463 18.5166 7.66479 18.5539 7.58862C18.5785 7.53552 18.6052 7.48425 18.6341 7.43518C18.6748 7.35535 18.7195 7.27515 18.766 7.20337C18.7956 7.1543 18.8246 7.10632 18.8557 7.05835C18.9084 6.97852 18.9659 6.89832 19.0245 6.82397C19.0564 6.78223 19.0861 6.74011 19.1197 6.6991C19.1956 6.60645 19.2798 6.51672 19.3596 6.4281C19.3812 6.40576 19.4003 6.38232 19.423 6.35999C19.5354 6.24829 19.654 6.14282 19.7782 6.04395C19.8086 6.02014 19.8419 5.99854 19.8734 5.97437C19.9716 5.90002 20.0723 5.82642 20.1803 5.75757C20.2301 5.72498 20.2854 5.69531 20.3403 5.66382C20.4355 5.60815 20.5326 5.55286 20.6348 5.50415C20.6963 5.47266 20.7622 5.44336 20.8267 5.4137C20.9277 5.36719 21.031 5.32324 21.1379 5.28149C21.2093 5.25366 21.2819 5.22729 21.3566 5.20166C21.4661 5.16394 21.5796 5.12878 21.6964 5.09583C21.7766 5.07349 21.8564 5.05188 21.9363 5.0321C22.059 5.00244 22.1875 4.97607 22.3171 4.9519C22.3973 4.93616 22.4772 4.92004 22.5669 4.90649C22.7134 4.88416 22.8675 4.86731 23.0228 4.85193C23.1027 4.84387 23.1726 4.83362 23.251 4.82812C23.4908 4.81055 23.7307 4.79993 23.9914 4.79993C24.2526 4.79993 24.495 4.81055 24.7323 4.82812C24.8125 4.83362 24.8835 4.84387 24.9604 4.85193C25.1157 4.86731 25.2699 4.88416 25.4164 4.90649C25.5021 4.92004 25.5837 4.93616 25.6661 4.9519C25.7958 4.97607 25.9243 5.00244 26.047 5.0321C26.1268 5.05188 26.2067 5.07349 26.2869 5.09583C26.4037 5.12878 26.5172 5.16394 26.6267 5.20166C26.7014 5.22729 26.7739 5.25366 26.8453 5.28149C26.9523 5.32324 27.0555 5.36719 27.1566 5.4137C27.2211 5.44336 27.287 5.47266 27.3485 5.50415C27.4507 5.55615 27.5477 5.61108 27.6429 5.66382C27.6949 5.69531 27.7499 5.72498 27.803 5.75757C27.911 5.82642 28.0117 5.90002 28.1099 5.97437C28.1414 5.99854 28.1747 6.02014 28.2051 6.04395C28.3292 6.14282 28.4479 6.24829 28.5603 6.35999C28.583 6.38232 28.602 6.40576 28.6237 6.4281C28.7093 6.51672 28.7917 6.60645 28.8675 6.6991C28.9012 6.74011 28.9309 6.7793 28.9628 6.82397C29.0214 6.90417 29.0789 6.97925 29.1316 7.05835C29.1627 7.10632 29.1916 7.1543 29.2213 7.20337C29.2675 7.2832 29.3125 7.35681 29.3531 7.43518C29.3795 7.48572 29.4059 7.53699 29.4333 7.58862C29.4707 7.66882 29.5051 7.74866 29.5381 7.82483C29.559 7.87756 29.5795 7.92957 29.5989 7.98486C29.6293 8.0647 29.6556 8.14966 29.6787 8.23206C29.6941 8.28223 29.7102 8.33276 29.7238 8.3833C29.7476 8.47375 29.767 8.56384 29.7853 8.6543C29.7941 8.69751 29.8043 8.74072 29.8124 8.78394L29.8164 8.8136C28.4123 7.78674 26.5846 7.53882 24.9579 8.15515C24.3415 8.40051 23.6545 8.40051 23.0382 8.15515C21.4115 7.53955 19.5837 7.78711 18.1797 8.8136L18.1749 8.78394ZM34.39 16.0001H32.79V14.1442C32.79 14.105 32.79 14.064 32.79 14.0281V12.8002H34.39V16.0001ZM16.739 4.80652C18.3046 2.73853 20.8798 1.59998 23.99 1.59998C27.1006 1.59998 29.6758 2.73853 31.2413 4.80652C32.5923 6.64343 33.0728 8.97913 32.5564 11.1998H31.9899C31.6921 11.2024 31.4204 11.3712 31.2867 11.6375C31.3468 11.3079 31.3933 10.9464 31.427 10.5575C31.427 10.5377 31.438 10.519 31.4398 10.4993C31.4629 10.2129 31.4764 9.9137 31.4764 9.59985C31.4764 6.41455 29.1612 3.19995 23.99 3.19995C18.8187 3.19995 16.5035 6.41455 16.5035 9.59985C16.5035 9.9137 16.5171 10.2129 16.5405 10.4993C16.5405 10.519 16.55 10.5377 16.5533 10.5575C16.5867 10.9464 16.6332 11.3079 16.6932 11.6375C16.5596 11.3712 16.2878 11.2024 15.9901 11.1998H15.4236C14.9072 8.97913 15.3877 6.64343 16.739 4.80652ZM13.59 12.8002H15.1899V14.0281V14.1442V16.0001H13.59V12.8002ZM22.39 17.6001C21.2965 17.6115 20.2045 17.506 19.1333 17.2855C19.0454 17.0391 18.9678 16.8018 18.9132 16.5967C18.8209 16.2451 18.503 16.0001 18.1398 16.0001C17.7084 16.0001 17.2235 15.5431 16.9606 14.8879C16.7002 14.4122 16.7236 13.8318 17.0214 13.3784C17.1111 13.3044 17.2253 13.2675 17.3411 13.2744C17.4092 13.2748 17.4769 13.2817 17.5436 13.2953C17.8131 13.3484 18.0907 13.2594 18.2797 13.0598C18.4683 12.8602 18.5411 12.5779 18.4734 12.312C18.3441 11.8096 18.2467 11.2994 18.1819 10.7849C19.8507 9.45776 21.1083 9.11755 22.4398 9.6449C23.4348 10.0386 24.5422 10.0386 25.5372 9.6449C26.8684 9.11755 28.126 9.45776 29.7948 10.7849C29.73 11.2994 29.6329 11.8096 29.5037 12.312C29.4355 12.5779 29.5088 12.8602 29.6974 13.0598C29.886 13.2594 30.1639 13.3484 30.4331 13.2953C30.6111 13.2422 30.8033 13.2715 30.9571 13.3751C31.2549 13.8285 31.2783 14.4089 31.0179 14.8846C30.755 15.5402 30.2701 15.9968 29.8387 15.9968C29.4747 15.9965 29.1565 16.2422 29.0646 16.5945C28.8723 17.332 28.0773 19.5546 26.9845 20.0753C26.0972 20.6488 25.0414 20.9044 23.99 20.8C23.8036 20.8 23.6403 20.8 23.4956 20.8C23.2363 20.8022 22.9774 20.7861 22.7203 20.7521C22.1139 20.6158 21.5312 20.3892 20.9925 20.0793C20.5714 19.8325 20.222 19.4799 19.9796 19.0562C20.779 19.1554 21.5843 19.2034 22.39 19.2001C22.832 19.2001 23.1902 18.8419 23.1902 18.3999C23.1902 17.9583 22.832 17.6001 22.39 17.6001ZM14.6875 24.4391C15.8931 23.9169 16.9276 23.4434 17.8076 23.0145C18.1152 24.0227 18.7078 24.9207 19.5142 25.6H12.71C13.3193 25.1338 13.9836 24.7441 14.6875 24.4391ZM6.73706 28.0001C7.11682 27.4882 7.71923 27.1904 8.35644 27.2H39.6235C40.2607 27.1904 40.8632 27.4882 41.2429 28.0001C41.5769 28.4469 41.6758 29.0277 41.5084 29.5602L37.2238 43.2001H10.7566L6.47009 29.5583C6.30346 29.0262 6.40307 28.4465 6.73706 28.0001ZM4.38378 36.3999L6.16613 33.924L9.18188 43.5242C9.16357 43.5352 9.15002 43.552 9.13171 43.5634C8.9746 43.6578 8.82885 43.7703 8.69738 43.8984C8.56811 44.031 8.45458 44.1779 8.359 44.3361C8.33007 44.3815 8.30773 44.4294 8.2788 44.4774C8.21508 44.6005 8.16125 44.7283 8.11877 44.8601C8.10192 44.9136 8.08288 44.9648 8.06933 45.0201C8.01879 45.2095 7.99243 45.4043 7.98986 45.5999C7.99096 45.7511 8.00634 45.902 8.03564 46.0503C8.04443 46.0983 8.06054 46.1433 8.07226 46.1895C8.0902 46.2601 8.10266 46.3326 8.12683 46.4H6.24121C5.93029 46.3997 5.64758 46.2195 5.51647 45.9375L3.27636 41.1288C3.00207 39.468 3.40051 37.7662 4.38378 36.3999Z" fill="#435F9C"/>
</g>
<defs>
<clipPath id="clip0_14935_3728">
<rect width="48" height="48" fill="white"/>
</clipPath>
</defs>
</svg>
