<svg width="49" height="48" viewBox="0 0 49 48" fill="none" xmlns="http://www.w3.org/2000/svg">
<path d="M42.5 5.25H6.5C4.84582 5.25 3.5 6.59546 3.5 8.25V33.75C3.5 35.4045 4.84582 36.75 6.5 36.75H11.9525C12.3667 36.75 12.7025 36.4145 12.7025 36C12.7025 35.5855 12.3667 35.25 11.9525 35.25H6.5C5.67273 35.25 5 34.5769 5 33.75V12.7493H15.1898C16.0739 12.7493 16.9048 12.405 17.5303 11.7803C17.872 11.439 18.3268 11.2507 18.8102 11.2507H41C41.9707 11.2438 41.9966 9.76483 41 9.75074C41 9.75073 18.8102 9.75074 18.8102 9.75074C17.9262 9.75074 17.0952 10.095 16.4697 10.7197C16.1281 11.061 15.6732 11.2493 15.1898 11.2493H5V8.25C5 7.42309 5.67273 6.75 6.5 6.75H42.5C43.3273 6.75 44 7.42309 44 8.25V33.75C44 34.5769 43.3273 35.25 42.5 35.25H37.1826C36.7684 35.25 36.4326 35.5855 36.4326 36C36.4326 36.4145 36.7684 36.75 37.1826 36.75H42.5C44.1542 36.75 45.5 35.4045 45.5 33.75V8.25C45.5 6.59546 44.1542 5.25 42.5 5.25Z" fill="#435F9C"/>
<path d="M12.875 8.99957C12.8917 9.98539 14.3584 9.98524 14.375 8.99954C14.3583 8.01375 12.8916 8.01389 12.875 8.99957Z" fill="#435F9C"/>
<path d="M9.875 8.99957C9.89174 9.98539 11.3584 9.98524 11.375 8.99954C11.3583 8.01375 9.89157 8.01389 9.875 8.99957Z" fill="#435F9C"/>
<path d="M6.875 8.99957C6.89174 9.98539 8.35839 9.98524 8.375 8.99954C8.35828 8.01375 6.89157 8.01389 6.875 8.99957Z" fill="#435F9C"/>
<path d="M23.3108 20.3154C24.1721 20.4223 25.0129 20.6699 25.8101 21.0507C26.1837 21.2287 26.6319 21.0712 26.8103 20.697C26.989 20.3234 26.8304 19.8759 26.4569 19.6972C25.5135 19.2468 24.5174 18.9538 23.4953 18.8271C20.4646 18.4536 17.5008 19.4628 15.3607 21.6008C7.38647 29.9385 17.403 42.6223 27.3655 36.7889C27.3654 36.789 32.6656 42.0954 32.6656 42.0954C33.5477 42.966 34.975 42.9628 35.8528 42.0851C36.7102 41.2403 36.7136 39.7416 35.8458 38.9086C35.8458 38.9086 30.5475 33.6118 30.5475 33.6118C32.6148 30.3165 32.4742 25.8919 30.1226 22.7525C30.1226 22.7525 33.0652 19.8105 33.0652 19.8105V21.1818C33.0803 22.1704 34.5506 22.1646 34.5652 21.1818V18.0002C34.5668 17.7043 34.3777 17.4183 34.1016 17.3079C34.1996 17.1625 30.6826 17.2941 30.6324 17.2501C30.2182 17.2502 29.8824 17.5856 29.8824 18.0002C29.8824 18.4147 30.2182 18.7502 30.6324 18.7502H32.0043L22.7851 27.9676L20.6623 25.8451C20.3694 25.5522 19.8947 25.5522 19.6018 25.8451L16.5571 28.8898C15.8713 29.585 16.9168 30.6422 17.6177 29.9503C17.6176 29.9504 20.132 27.436 20.132 27.436L22.2542 29.5578C22.5401 29.9054 23.1729 29.7658 23.3198 29.5538C23.3958 29.4779 25.991 26.8832 27.6608 25.2137C28.5104 24.442 29.0589 23.6256 29.1142 23.9327C31.0346 26.7417 30.9509 30.575 28.9472 33.3134C28.7189 33.5981 28.8948 34.1377 29.0558 34.2411C29.1936 34.3783 34.7939 39.9766 34.8143 40.0002C35.0689 40.3116 35.0879 40.7324 34.7504 41.064C34.4629 41.3755 33.8608 41.2308 33.7215 41.0294C33.5763 40.8847 27.9917 35.2901 27.959 35.2623C27.6642 34.9945 27.2239 35.0254 26.9271 35.283C21.9785 38.8458 14.636 35.5141 14.0518 29.4375C13.3516 24.2626 18.1385 19.5399 23.3108 20.3154Z" fill="#FF9B00"/>
</svg>
