<svg width="49" height="48" viewBox="0 0 49 48" fill="none" xmlns="http://www.w3.org/2000/svg">
<g clip-path="url(#clip0_14935_3618)">
<path d="M9.38724 21.7632L9.47599 21.7283C9.66405 21.6543 9.92573 21.6461 10.2129 21.6645C10.5036 21.6831 10.8377 21.7305 11.1784 21.7789C11.8564 21.8739 12.5515 21.9713 13.2062 21.9257C13.8582 21.8802 14.4619 21.6933 14.9608 21.2253L15.0652 21.1274L15.1213 21.2591C15.2728 21.6153 15.368 21.9566 15.3615 22.327C15.355 22.6977 15.2469 23.0889 15.0056 23.5463C14.5258 24.456 13.5089 25.6461 11.6687 27.4863C6.69391 32.4611 8.23496 38.2037 8.4018 38.7705L8.40332 38.7756L8.40318 38.7757C8.47102 39.0623 8.72935 39.2736 9.03487 39.2736H27.9131C28.1178 39.2736 28.3189 39.1758 28.4464 38.9951C28.6495 38.6988 28.5772 38.2955 28.2824 38.0907L28.2824 38.0907C27.3684 37.4545 26.8322 36.7746 26.5837 36.1023L26.5836 36.102C26.3626 35.4991 26.3796 34.8988 26.5588 34.3543C26.5588 34.3542 26.5589 34.3541 26.5589 34.3541L26.6539 34.3853C26.8312 33.8382 27.1789 33.344 27.6221 32.9536L9.38724 21.7632ZM9.38724 21.7632L9.41793 21.8535L9.76142 22.8641M9.38724 21.7632L9.76142 22.8641M9.76142 22.8641C9.86986 23.1836 9.71404 23.5305 9.41043 23.6657L9.41039 23.6657L9.40672 23.6675L5.88139 25.414M9.76142 22.8641L5.88139 25.414M5.88139 25.414C5.88135 25.414 5.88132 25.4141 5.88129 25.4141C5.56741 25.5677 5.18811 25.4444 5.02379 25.1392L5.02378 25.1392L2.31444 20.1105L5.88139 25.414ZM8.35079 22.7459L8.27217 22.7847L5.95542 23.9296L5.86891 23.9724L5.8231 23.8874L3.72647 19.9998L3.69013 19.9324L3.7457 19.8798L13.1945 10.9248C13.1946 10.9248 13.1946 10.9248 13.1946 10.9248C13.4391 10.6928 13.4614 10.3146 13.2554 10.0538L13.249 10.0474L13.2494 10.047L11.5717 7.95261L11.4591 7.81212L11.6379 7.79079C12.1149 7.7339 12.5847 7.80598 13.0431 7.96352L13.0434 7.96362C13.8863 8.25606 14.7186 8.83528 15.4879 9.46687C15.6237 9.57794 15.7872 9.62451 15.9469 9.6125L16.0544 9.60441V9.6072C17.3156 9.52514 18.4827 9.67691 19.5533 10.0143L19.5534 10.0144C22.564 10.9671 24.8562 13.4146 26.4553 16.3738C28.0888 19.3955 29.0079 22.9475 29.2387 26.0458C29.3738 27.83 29.2818 29.4528 28.9634 30.7212L28.948 30.7823L28.8863 30.7948C28.0936 30.9564 27.3285 31.3549 26.6965 31.9122L8.35079 22.7459ZM8.35079 22.7459L8.32253 22.6629L8.04064 21.8348M8.35079 22.7459L8.04064 21.8348M8.04064 21.8348C8.04062 21.8348 8.04061 21.8347 8.04059 21.8347C7.98532 21.6703 7.99562 21.4821 8.08563 21.3182L8.08585 21.3179C8.4097 20.7222 8.87128 20.4694 9.42657 20.3864C9.99114 20.3021 10.6481 20.3937 11.3564 20.4939L11.3564 20.4939L11.3708 20.4959C11.9651 20.5797 12.6126 20.6711 13.1765 20.5854C13.7528 20.4979 14.2514 20.2237 14.5237 19.5746M8.04064 21.8348L11.3704 20.3948L11.3762 20.3957C12.5722 20.5643 13.9067 20.7526 14.4236 19.5542L14.5237 19.5746M14.5237 19.5746L14.5247 19.5748C14.5828 19.4379 14.6851 19.3194 14.8237 19.2482L14.8245 19.2477C15.1401 19.082 15.5315 19.2044 15.6977 19.5204C15.6977 19.5205 15.6978 19.5206 15.6978 19.5207L15.8229 19.7614L15.8227 19.7615L15.8256 19.7664C15.8278 19.77 15.83 19.7742 15.834 19.7817C15.837 19.7873 15.8412 19.7951 15.846 19.8031C16.5552 21.15 16.9998 22.0058 16.662 23.1614C16.4914 23.7449 16.1191 24.4112 15.4635 25.2564C14.8083 26.1011 13.8745 27.1191 12.587 28.4061L12.587 28.4062C8.79557 32.1999 9.22191 36.4293 9.52076 37.894L9.53708 37.974H9.61874H26.0025H26.2092L26.0809 37.8119C25.7538 37.3988 25.52 36.9754 25.3656 36.5502L25.3655 36.5498C25.0356 35.6527 25.0581 34.7617 25.3242 33.9539C25.5832 33.1677 26.0764 32.4601 26.6964 31.9122L14.5237 19.5746ZM2.3144 20.1104C2.16883 19.8397 2.23458 19.5113 2.45579 19.3173L2.45584 19.3173L2.45866 19.3147L11.8014 10.459L11.8682 10.3957L11.8106 10.3239L9.88201 7.91978C9.882 7.91978 9.882 7.91977 9.88199 7.91977C9.65856 7.64111 9.7034 7.23309 9.98238 7.00964L9.98243 7.00971L9.98561 7.00694C10.0157 6.9807 10.0504 6.95918 10.0879 6.94025L10.1429 6.91253V6.90951C11.2744 6.34009 12.3911 6.3695 13.4654 6.74183L13.4655 6.74188C14.3894 7.06054 15.2641 7.63281 16.0793 8.28039L16.1088 8.30385L16.1465 8.30197C17.5099 8.23392 18.7757 8.40497 19.9453 8.77518L19.9755 8.67984L19.9453 8.77518C23.3009 9.83679 25.8401 12.5108 27.5979 15.7609C29.3203 18.9466 30.2897 22.6909 30.5348 25.949C30.6977 28.123 30.5385 30.0948 30.0757 31.5625C29.9891 31.8359 29.7411 32.0122 29.4703 32.0177L29.4703 32.0175L29.464 32.0181C28.7838 32.0749 28.1019 32.3957 27.5559 32.8787L2.3144 20.1104ZM14.4418 19.5149C14.5096 19.3672 14.6239 19.2384 14.778 19.1592L14.4418 19.5149Z" fill="#435F9C" stroke="white" stroke-width="0.2"/>
<path d="M5.45873 38.4254H5.46096L5.49029 38.3959C5.74955 38.1349 6.10761 37.9735 6.50084 37.9735H30.1566C30.5529 37.9735 30.9107 38.1349 31.1719 38.3961C31.4306 38.6549 31.5922 39.016 31.5922 39.4114V41.9674C31.5922 42.3628 31.431 42.7207 31.1718 42.9828C30.9106 43.2417 30.5525 43.4023 30.1566 43.4023H6.50084C6.10733 43.4023 5.74663 43.2415 5.4875 42.9828C5.22618 42.7207 5.06484 42.3625 5.06484 41.9674V39.4114C5.06484 39.0302 5.2147 38.6817 5.45873 38.4254ZM30.2918 39.4114C30.2918 39.3774 30.2785 39.3454 30.257 39.3215C30.2569 39.3213 30.2567 39.3211 30.2566 39.3209V39.2735H30.1566H6.50084C6.46284 39.2735 6.43205 39.2919 6.42536 39.2959C6.425 39.2961 6.42471 39.2962 6.42449 39.2964L6.31926 39.3573L6.3656 39.4102C6.3656 39.4106 6.36559 39.411 6.36559 39.4114V41.9674C6.36559 42.0016 6.38003 42.0403 6.41126 42.0664C6.43043 42.0843 6.45996 42.1027 6.50084 42.1027H30.1566C30.186 42.1027 30.2231 42.0918 30.2502 42.0632C30.2817 42.0351 30.2918 41.9959 30.2918 41.9674V39.4114Z" fill="#435F9C" stroke="white" stroke-width="0.2"/>
<path d="M1.08414 47.323L1.15487 47.3937C1.47323 47.7121 1.90946 47.9086 2.38541 47.9086H34.2724C34.7482 47.9086 35.1877 47.7123 35.5051 47.3938L35.5602 47.3386C35.8436 47.0286 36.0178 46.6129 36.0178 46.1609V43.8509C36.0178 43.3727 35.8216 42.9361 35.5052 42.6178L1.08414 47.323ZM1.08414 47.323L1.08388 47.3232M1.08414 47.323L1.08388 47.3232M1.08388 47.3232C0.808521 47.0147 0.640039 46.6055 0.640039 46.1609V43.8509C0.640039 43.3873 0.824764 42.963 1.12423 42.6471H1.18416V42.5871C1.49974 42.2873 1.92391 42.1029 2.38541 42.1029H34.272C34.748 42.1029 35.1844 42.2994 35.5032 42.6158L35.505 42.6176L1.08388 47.3232ZM34.5865 46.4795L34.6158 46.4502V46.4448C34.6797 46.367 34.7174 46.2694 34.7174 46.1606V43.8506C34.7174 43.7274 34.6687 43.6142 34.5884 43.5338L34.5883 43.5338L34.5861 43.5316C34.5861 43.5316 34.5861 43.5316 34.5861 43.5316C34.5062 43.4517 34.3951 43.4026 34.2717 43.4026H2.38541C2.26415 43.4026 2.15105 43.4515 2.07097 43.5316C2.07097 43.5316 2.07096 43.5316 2.07095 43.5316L2.06872 43.5338L2.0687 43.5338C1.98839 43.6142 1.93966 43.7274 1.93966 43.8506V46.1606C1.93966 46.2702 1.97957 46.3678 2.04129 46.4442V46.4502L2.07058 46.4795C2.15117 46.5601 2.26433 46.6086 2.38541 46.6086H34.272C34.3959 46.6086 34.5067 46.5593 34.5865 46.4795Z" fill="#435F9C" stroke="white" stroke-width="0.2"/>
<path d="M36.433 20.054V20.154H36.533H43.2609C43.62 20.154 43.9109 20.4434 43.9109 20.8018V29.8393C43.9109 30.198 43.6196 30.4893 43.2609 30.4893C42.9016 30.4893 42.6101 30.1979 42.6101 29.8393V21.5518V21.4518H42.5101H35.7822C35.4235 21.4518 35.1322 21.1606 35.1322 20.8014V9.90614C35.1322 9.5473 35.4235 9.25576 35.7822 9.25576C36.1414 9.25576 36.433 9.54706 36.433 9.90614V20.054Z" fill="#FF9B00" stroke="white" stroke-width="0.2"/>
<path d="M33.3871 13.5773L33.3869 13.5777C33.1637 13.856 32.7561 13.8996 32.4771 13.6758L32.477 13.6758C32.198 13.4523 32.153 13.0449 32.3786 12.766L32.3787 12.7659L35.2747 9.18067C35.5005 8.90198 35.9084 8.85889 36.1873 9.08169C36.2252 9.11308 36.258 9.14624 36.2868 9.18125L36.3986 9.31726L39.185 12.7611L39.1851 12.7612C39.411 13.04 39.368 13.4502 39.0886 13.6757L39.0885 13.6758C38.81 13.9013 38.3997 13.8584 38.1739 13.5792L35.8571 10.7157L35.7794 10.6196L35.7016 10.7157L33.3871 13.5773Z" fill="#FF9B00" stroke="white" stroke-width="0.2"/>
<path d="M33.8031 0.929401L33.8034 0.929098C34.3084 0.42191 35.0096 0.108789 35.7819 0.108789C36.5549 0.108789 37.2532 0.421447 37.7614 0.92925C38.2664 1.43427 38.5788 2.13547 38.5788 2.90791C38.5788 3.68054 38.2665 4.37919 37.7613 4.887C37.2535 5.39218 36.5549 5.70479 35.7819 5.70479C35.0095 5.70479 34.3083 5.392 33.8033 4.88695C33.2962 4.37951 32.9828 3.6805 32.9828 2.90791C32.9828 2.13555 33.2959 1.43442 33.8031 0.929401ZM36.8425 1.84822L36.8423 1.84795C36.5707 1.57642 36.1957 1.40916 35.7827 1.40916C35.3693 1.40916 34.9939 1.57639 34.7223 1.84795C34.4508 2.1195 34.2836 2.49453 34.2836 2.90791C34.2836 3.32125 34.4508 3.6967 34.7224 3.96793L34.7227 3.96824C34.9938 4.23651 35.3685 4.40666 35.7827 4.40666C36.1957 4.40666 36.5708 4.2365 36.8419 3.96824L36.8426 3.96756C37.1113 3.69642 37.2811 3.32166 37.2811 2.90791V2.90782C37.2807 2.49192 37.1113 2.11902 36.8425 1.84822Z" fill="#435F9C" stroke="white" stroke-width="0.2"/>
<path d="M41.2812 38.4538L41.2809 38.4535C40.7741 37.9485 40.4613 37.2503 40.4613 36.475C40.4613 35.7027 40.7736 35.0038 41.281 34.4964C41.7869 33.9912 42.4855 33.6781 43.2605 33.6781C44.0326 33.6781 44.7316 33.9911 45.2391 34.4963C45.7443 35.0034 46.0573 35.7028 46.0573 36.475C46.0573 37.2503 45.7442 37.9486 45.2391 38.4537L45.2391 38.4537C44.7321 38.9614 44.0327 39.2741 43.2605 39.2741C42.4851 39.2741 41.787 38.9618 41.2812 38.4538ZM42.2001 37.5353L42.2002 37.5354C42.4716 37.806 42.8446 37.9741 43.2605 37.9741C43.6729 37.9741 44.0491 37.8063 44.3178 37.5353C44.5893 37.2638 44.7566 36.8907 44.7566 36.475C44.7566 36.0616 44.5896 35.6865 44.3178 35.4177C44.049 35.1458 43.6727 34.9789 43.2605 34.9789C42.8449 34.9789 42.4718 35.1461 42.2003 35.4175C41.9284 35.6863 41.7613 36.0619 41.7613 36.475C41.7613 36.8907 41.9286 37.2638 42.2001 37.5353Z" fill="#435F9C" stroke="white" stroke-width="0.2"/>
<path d="M48.2495 9.60045L48.2493 9.60026C47.9948 9.34602 47.5848 9.34601 47.3302 9.60022L48.2495 9.60045ZM48.2495 9.60045C48.5029 9.85218 48.5033 10.2646 48.2493 10.5189L48.2495 9.60045ZM43.4257 13.5051L47.3302 9.60026L48.2492 10.519L44.344 14.4238L44.344 14.4238C44.09 14.6781 43.6774 14.6777 43.426 14.4241L43.4256 14.4238C43.1711 14.1696 43.1711 13.7593 43.4256 13.5051L43.4257 13.5051Z" fill="#435F9C" stroke="white" stroke-width="0.2"/>
<path d="M48.32 14.4945L48.2493 14.4238C47.9947 14.678 47.5847 14.678 47.3302 14.4238L43.4257 10.5189L43.4256 10.5189C43.171 10.2645 43.1714 9.85226 43.4254 9.60054L43.426 9.5999C43.6774 9.34628 44.09 9.34588 44.344 9.60017L44.344 9.60022L48.2492 13.505C48.5031 13.7593 48.5031 14.1696 48.2492 14.4238L48.32 14.4945ZM48.32 14.4945C48.6129 14.2013 48.6129 13.7276 48.32 13.4344L47.2595 14.4945C47.5531 14.7878 48.0264 14.7878 48.32 14.4945Z" fill="#435F9C" stroke="white" stroke-width="0.2"/>
<path d="M27.5854 2.75621L27.5853 2.75603C27.3307 2.50178 26.9207 2.50177 26.6661 2.75598L27.5854 2.75621ZM27.5854 2.75621C27.8388 3.00794 27.8392 3.42031 27.5852 3.67468L27.5854 2.75621ZM22.7616 6.66048L26.6661 2.75603L27.5852 3.67473L23.68 7.57918L23.6799 7.57923C23.426 7.83352 23.0133 7.83312 22.762 7.5795L22.7616 7.57914C22.5071 7.32495 22.5071 6.91471 22.7616 6.66053L22.7616 6.66048Z" fill="#435F9C" stroke="white" stroke-width="0.2"/>
<path d="M27.5849 6.66097L27.585 6.66101C27.8395 6.9152 27.8395 7.32544 27.585 7.57963C27.3304 7.83388 26.9204 7.83388 26.6658 7.57963L22.7614 3.67517C22.507 3.4208 22.5074 3.00811 22.761 2.75679L22.7616 2.7562C23.0134 2.50251 23.4257 2.50212 23.6801 2.75647L23.6801 2.75647L27.5849 6.66097Z" fill="#435F9C" stroke="white" stroke-width="0.2"/>
<path d="M26.9808 27.9804L26.9808 27.9806C26.9782 28.3372 26.685 28.6261 26.329 28.6219L26.3284 28.6219C25.9699 28.62 25.683 28.3272 25.6872 27.9701L25.6872 27.9698C25.7226 24.0488 24.9198 20.8502 23.703 18.3736L23.7029 18.3735C22.2204 15.3655 20.1362 13.4412 18.2153 12.6061C17.8872 12.4628 17.7374 12.0815 17.8789 11.7532C18.0223 11.4252 18.4036 11.2754 18.7318 11.4171C20.8886 12.3554 23.2323 14.483 24.8656 17.7992C26.1621 20.4346 27.0182 23.8293 26.9808 27.9804Z" fill="#435F9C" stroke="white" stroke-width="0.2"/>
</g>
<defs>
<clipPath id="clip0_14935_3618">
<rect width="48" height="48" fill="white" transform="translate(0.5)"/>
</clipPath>
</defs>
</svg>
