<svg width="81" height="80" viewBox="0 0 81 80" fill="none" xmlns="http://www.w3.org/2000/svg">
<rect width="81" height="80" fill="#292929"/>
<path d="M-2053 -4235C-2053 -4236.1 -2052.1 -4237 -2051 -4237H1516C1517.1 -4237 1518 -4236.1 1518 -4235V5052C1518 5053.1 1517.1 5054 1516 5054H-2051C-2052.1 5054 -2053 5053.1 -2053 5052V-4235Z" fill="#444444"/>
<path d="M-2051 -4236H1516V-4238H-2051V-4236ZM1517 -4235V5052H1519V-4235H1517ZM1516 5053H-2051V5055H1516V5053ZM-2052 5052V-4235H-2054V5052H-2052ZM-2051 5053C-2051.55 5053 -2052 5052.55 -2052 5052H-2054C-2054 5053.66 -2052.66 5055 -2051 5055V5053ZM1517 5052C1517 5052.55 1516.55 5053 1516 5053V5055C1517.66 5055 1519 5053.66 1519 5052H1517ZM1516 -4236C1516.55 -4236 1517 -4235.55 1517 -4235H1519C1519 -4236.66 1517.66 -4238 1516 -4238V-4236ZM-2051 -4238C-2052.66 -4238 -2054 -4236.66 -2054 -4235H-2052C-2052 -4235.55 -2051.55 -4236 -2051 -4236V-4238Z" fill="white" fill-opacity="0.1"/>
<rect width="1440" height="1270" transform="translate(-352 -284)" fill="white"/>
<g filter="url(#filter0_d_14930_2903)">
<rect x="-252" y="-32" width="584.426" height="429" rx="8" fill="white" shape-rendering="crispEdges"/>
<rect x="-251.5" y="-31.5" width="583.426" height="428" rx="7.5" stroke="#FF9B00" shape-rendering="crispEdges"/>
<g clip-path="url(#clip0_14930_2903)">
<path d="M28.2638 33.7492C28.2611 35.0852 28.409 36.4168 28.7045 37.7188L23.2446 43.1682C22.9285 42.3655 22.6553 41.5464 22.4262 40.7142L22.327 40.3537L21.9723 40.2357L16.3378 38.3618C16.3374 38.3616 16.337 38.3615 16.3366 38.3613C16.2278 38.3243 16.1334 38.2542 16.0666 38.1608C15.9995 38.0671 15.9635 37.9546 15.9638 37.8393V37.8375L15.9638 29.6625L15.9638 29.6607C15.9635 29.5454 15.9995 29.4329 16.0666 29.3391C16.1335 29.2457 16.2279 29.1756 16.3366 29.1386C16.337 29.1384 16.3374 29.1383 16.3378 29.1382L21.9723 27.2642L22.3234 27.1474L22.4246 26.7915C22.9397 24.9808 23.6614 23.2355 24.5757 21.5899L24.7553 21.2668L24.5896 20.9363L21.9271 15.6238L21.9273 15.6238L21.9211 15.6121C21.8697 15.5142 21.849 15.403 21.8618 15.2931C21.8738 15.1898 21.9148 15.0921 21.9799 15.0113L27.7463 9.24495L27.7489 9.24236C27.8306 9.15982 27.9363 9.10525 28.0509 9.08647C28.1642 9.06791 28.2805 9.0853 28.3834 9.13614L33.6408 11.871L33.9749 12.0448L34.304 11.8618C35.9347 10.9551 37.6635 10.2375 39.4569 9.72281L39.8116 9.62103L39.9281 9.27089L41.8031 3.63339L41.8084 3.61742L41.8129 3.60121C41.846 3.48319 41.9175 3.37958 42.0161 3.30684C42.1148 3.2341 42.2349 3.1964 42.3574 3.19971L42.3669 3.19997H42.3763L50.5513 3.19997L50.5531 3.19997C50.6684 3.19967 50.7809 3.23562 50.8747 3.30273C50.9681 3.36959 51.0382 3.464 51.0752 3.57273C51.0754 3.57314 51.0755 3.57356 51.0756 3.57397L52.9496 9.20839L53.0653 9.55631L53.4172 9.65929C55.23 10.1898 56.9754 10.9279 58.6188 11.859L58.9492 12.0462L59.2863 11.8713L64.5329 9.14801C64.5334 9.1478 64.5338 9.14759 64.5342 9.14738C64.6371 9.095 64.7539 9.07633 64.868 9.09404C64.9822 9.11177 65.088 9.16505 65.1702 9.24629C65.1705 9.24653 65.1707 9.24677 65.1709 9.24701L70.9694 15.033L70.9715 15.035C71.054 15.1167 71.1086 15.2224 71.1273 15.337C71.1461 15.4514 71.1282 15.5688 71.0763 15.6724C71.0762 15.6726 71.0761 15.6728 71.0759 15.673L68.4023 20.9328L68.2336 21.2647L68.4145 21.5901C69.3212 23.2208 70.0388 24.9496 70.5535 26.7431L70.6553 27.0977L71.0054 27.2142L76.6405 29.0884C76.6408 29.0885 76.6411 29.0886 76.6414 29.0887C76.7539 29.1268 76.8511 29.2003 76.9183 29.2982C76.9858 29.3964 77.0195 29.5139 77.0145 29.6329L77.0138 29.6477V29.6625L77.0138 37.8375L77.0138 37.8393C77.0141 37.9546 76.9782 38.0671 76.9111 38.1608C76.8442 38.2542 76.7499 38.3243 76.6412 38.3613C76.6407 38.3615 76.6403 38.3616 76.6398 38.3618L71.0054 40.2357L70.654 40.3526L70.5529 40.7089C70.0394 42.5188 69.3216 44.2644 68.4133 45.912L68.2356 46.2345L68.4005 46.5636L71.0591 51.8682C71.105 51.9675 71.1203 52.0783 71.1029 52.1864C71.0856 52.2943 71.0365 52.3946 70.962 52.4744L65.1814 58.255L65.1788 58.2576C65.0971 58.3401 64.9914 58.3947 64.8768 58.4135C64.7626 58.4322 64.6454 58.4144 64.5419 58.3626C64.5415 58.3624 64.5412 58.3623 64.5408 58.3621L59.281 55.6885L58.9496 55.52L58.6244 55.7003C56.9922 56.6051 55.2631 57.3229 53.4699 57.8399L53.1159 57.9419L52.9996 58.2916L51.1256 63.926C51.1255 63.9264 51.1254 63.9267 51.1253 63.9271C51.0882 64.0359 51.0181 64.1303 50.9247 64.1972C50.8309 64.2643 50.7185 64.3003 50.6031 64.3H50.6013H42.3763L42.3745 64.3C42.2592 64.3003 42.1467 64.2643 42.053 64.1972C41.9596 64.1303 41.8894 64.0359 41.8524 63.9271C41.8523 63.9267 41.8522 63.9264 41.852 63.926L39.9781 58.2916L39.8601 57.9368L39.4996 57.8376C38.6678 57.6086 37.849 57.3355 37.0466 57.0196L42.5108 51.5554C43.8107 51.8347 45.1382 51.9671 46.4684 51.95C50.0664 51.9491 53.5835 50.8817 56.5752 48.8827C59.5682 46.8829 61.9009 44.0404 63.2785 40.7148C64.656 37.3892 65.0164 33.7298 64.3141 30.1993C63.6119 26.6689 61.8785 23.4259 59.3332 20.8806C56.7879 18.3353 53.5449 16.6019 50.0145 15.8997C46.484 15.1974 42.8246 15.5578 39.499 16.9354C36.1734 18.3129 33.3309 20.6456 31.3311 23.6386C29.3314 26.6314 28.264 30.1499 28.2638 33.7492ZM28.2638 33.7492C28.2638 33.749 28.2638 33.7488 28.2638 33.7485L28.9638 33.75H28.2638C28.2638 33.7497 28.2638 33.7495 28.2638 33.7492Z" stroke="#435F9C" stroke-width="1.4"/>
<path d="M43.5754 45.9125C44.5211 46.1392 45.4905 46.2525 46.4629 46.25C49.7782 46.25 52.9576 44.933 55.3018 42.5888C57.646 40.2446 58.963 37.0652 58.963 33.75C58.9677 32.1522 58.662 30.5687 58.063 29.0875C57.9857 28.8949 57.8618 28.7246 57.7023 28.5919C57.5428 28.4592 57.3528 28.3683 57.1494 28.3274C56.946 28.2865 56.7356 28.2968 56.5372 28.3575C56.3388 28.4182 56.1587 28.5273 56.013 28.675L49.7629 34.8625L46.1754 33.975L45.2879 30.3875L51.538 24.2C51.6856 24.0543 51.7947 23.8741 51.8554 23.6757C51.9161 23.4773 51.9264 23.2669 51.8855 23.0635C51.8446 22.8601 51.7537 22.6701 51.621 22.5106C51.4883 22.3512 51.318 22.2272 51.1255 22.15C49.6446 21.5497 48.0609 21.244 46.4629 21.25C43.1477 21.25 39.9683 22.5669 37.6241 24.9111C35.2799 27.2553 33.9629 30.4348 33.9629 33.75C33.9604 34.7225 34.0737 35.6918 34.3004 36.6375L18.0504 52.8875C17.123 52.6478 16.1707 52.5178 15.2129 52.5C13.5714 52.5 11.946 52.8233 10.4294 53.4515C8.91283 54.0797 7.53484 55.0004 6.37411 56.1611C4.02991 58.5053 2.71294 61.6848 2.71294 65C2.7082 66.5978 3.01386 68.1812 3.61295 69.6625C3.69144 69.853 3.81582 70.0212 3.97502 70.152C4.13422 70.2829 4.32331 70.3724 4.52545 70.4125C4.72817 70.4549 4.93824 70.4462 5.13679 70.3873C5.33534 70.3284 5.51614 70.2211 5.66295 70.075L11.9129 63.825L15.5004 64.7125L16.3879 68.3L10.2004 74.55C10.0528 74.6957 9.94365 74.8758 9.88297 75.0742C9.82229 75.2726 9.81195 75.483 9.85288 75.6864C9.8938 75.8898 9.98471 76.0798 10.1174 76.2393C10.2501 76.3988 10.4204 76.5227 10.6129 76.6C12.0747 77.1912 13.6362 77.4967 15.2129 77.5C18.5282 77.5 21.7076 76.183 24.0518 73.8388C26.396 71.4946 27.7129 68.3152 27.7129 65C27.7155 64.0275 27.6022 63.0582 27.3754 62.1125L43.5754 45.9125Z" fill="#FF9A00"/>
</g>
</g>
<defs>
<filter id="filter0_d_14930_2903" x="-270" y="-46" width="620.427" height="465" filterUnits="userSpaceOnUse" color-interpolation-filters="sRGB">
<feFlood flood-opacity="0" result="BackgroundImageFix"/>
<feColorMatrix in="SourceAlpha" type="matrix" values="0 0 0 0 0 0 0 0 0 0 0 0 0 0 0 0 0 0 127 0" result="hardAlpha"/>
<feMorphology radius="2" operator="dilate" in="SourceAlpha" result="effect1_dropShadow_14930_2903"/>
<feOffset dy="4"/>
<feGaussianBlur stdDeviation="8"/>
<feComposite in2="hardAlpha" operator="out"/>
<feColorMatrix type="matrix" values="0 0 0 0 0 0 0 0 0 0 0 0 0 0 0 0 0 0 0.1 0"/>
<feBlend mode="normal" in2="BackgroundImageFix" result="effect1_dropShadow_14930_2903"/>
<feBlend mode="normal" in="SourceGraphic" in2="effect1_dropShadow_14930_2903" result="shape"/>
</filter>
<clipPath id="clip0_14930_2903">
<rect width="80" height="80" fill="white" transform="translate(0.212891)"/>
</clipPath>
</defs>
</svg>
