<svg width="81" height="80" viewBox="0 0 81 80" fill="none" xmlns="http://www.w3.org/2000/svg">
<path d="M30.5951 74.5747H31.1404L31.2352 74.0376C31.7674 71.0215 32.007 67.6724 31.7474 64.6512L31.6963 64.0568H31.0998H7.86836C5.17924 64.0568 2.99961 61.8771 2.99961 59.1879V15.0595C2.99961 12.3704 5.17922 10.1908 7.86836 10.1908H33.8343H34.2095L34.2452 10.1289L42.1293 14.6807L30.649 34.5652L22.765 30.0134L32.4125 13.3031L32.9754 12.3281H31.8496H7.86836C6.35859 12.3281 5.13695 13.5497 5.13695 15.0595V52.8112V53.4612H5.78695H75.7869H76.437V52.8112V15.0595C76.437 13.5497 75.2153 12.3281 73.7055 12.3281H73.6529H73.6002H73.5475H73.4948H73.4421H73.3894H73.3367H73.2841H73.2314H73.1787H73.126H73.0733H73.0206H72.9679H72.9153H72.8626H72.8099H72.7572H72.7045H72.6518H72.5991H72.5465H72.4938H72.4411H72.3884H72.3357H72.283H72.2303H72.1777H72.125H72.0723H72.0196H71.9669H71.9142H71.8615H71.8089H71.7562H71.7035H71.6508H71.5981H71.5454H71.4927H71.44H71.3874H71.3347H71.282H71.2293H71.1766H71.1239H71.0713H71.0186H70.9659H70.9132H70.8605H70.8078H70.7551H70.7025H70.6498H70.5971H70.5444H70.4917H70.439H70.3863H70.3336H70.281H70.2283H70.1756H70.1229H70.0702H70.0175H69.9649H69.9122H69.8595H69.8068H69.7541H69.7014H69.6487H69.596H69.5434H69.4907H69.438H69.3853H69.3326H69.2799H69.2272H69.1746H69.1219H69.0692H69.0165H68.9638H68.9111H68.8584H68.8058H68.7531H68.7004H68.6477H68.595H68.5423H68.4896H68.437H68.3843H68.3316H68.2789H68.2262H68.1735H68.1208H68.0682H68.0155H67.9628H67.9101H67.8574H67.8047H67.752H67.6994H67.6467H67.594H67.5413H67.4886H67.4359H67.3832H67.3306H67.2779H67.2252H67.1725H67.1198H67.0671H67.0144H66.9618H66.9091H66.8564H66.8037H66.751H66.6983H66.6456H66.593H66.5403H66.4876H66.4349H66.3822H66.3295H66.2768H66.2242H66.1715H66.1188H66.0661H66.0134H65.9607H65.908H65.8554H65.8027H65.75H65.6973H65.6446H65.5919H65.5392H65.4865H65.4339H65.3812H65.3285H65.2758H65.2231H65.1704H65.1177H65.0651H65.0124H64.9597H64.907H64.8543H64.8016H64.749H64.6963H64.6436H64.5909H64.5382H64.4855H64.4328H64.3801H64.3275H64.2748H64.2221H64.1694H64.1167H64.064H64.0113H63.9587H63.906H63.8533H63.8006H63.7479H63.6952H63.6425H63.5899H63.5372H63.4845H63.4318H63.3791H63.3264H63.2737H63.2211H63.1684H63.1157H63.063H63.0103H62.9576H62.9049H62.8523H62.7996H62.7469H62.6942H62.6415H62.5888H62.5361H62.4835H62.4308H62.3781H62.3254H62.2727H62.22H62.1673H62.1147H62.062H62.0093H61.9566H61.9039H61.8512H61.7985H61.7459H61.6932H61.6405H61.5878H61.5351H61.4824H61.4297H61.3771H61.3244H61.2717H61.219H61.1663H61.1136H61.0609H61.0083H60.9556H60.9029H60.8502H60.7975H60.7448H60.6921H60.6395H60.5868H60.5341H60.4814H60.4287H60.376H60.3233H60.2707H60.218H60.1653H60.1126H60.0599H60.0072H59.9545H59.9019H59.8492H59.7965H59.7438H59.6911H59.6384H59.5857H59.5331H59.4804H59.4277H59.375H59.3223H59.2696H59.2169H59.1642H59.1116H59.0589H59.0062H58.9535H58.9008H58.8481H58.7954H58.7428H58.6901H58.6374H58.5847H58.532H58.4793H58.4266H58.374H58.3213H58.2686H58.2159H58.1632H58.1105H58.0578H58.0052H57.9525H57.8998H57.8471H57.7944H57.7417H57.689H57.6364H57.5837H57.531H57.4783H57.4256H57.3729H57.3202H57.2676H57.2149H57.1622H57.1095H57.0568H57.0041H56.9514H56.8988H56.8461H56.7934H56.7407H56.688H56.6353H56.5826H56.53H56.4773H56.4246H56.3719H56.3192H56.2665H56.2138H56.1612H56.1085H56.0558H56.0031H55.9504H55.8977H55.845H55.7924H55.7397H55.687H55.6343H55.5816H55.5289H55.4762H55.4236H55.3709H55.3182H55.2655H55.2128H55.1601H55.1074H55.0548H55.0021H54.9494H54.8967H54.844H54.7913H54.7386H54.686H54.6333H54.5806H54.5279H54.4752H54.4225H54.3698H54.3172H54.2645H54.2118H54.1591H54.1064H54.0537H54.001H53.9483H53.8957H53.843H53.7903H53.7376H53.6849H53.6322H53.5795H53.5269H53.4742H53.4215H53.3688H53.3161H53.2634H53.2107H53.1581H53.1054H53.0527H53H52.9473H52.8946H52.8419H52.7893H52.7366H52.6839H52.6312H52.5785H52.5258H52.4731H52.4205H52.3678H52.3151H52.2624H52.2097H52.157H52.1043H52.0517H51.999H51.9463H51.8936H51.8409H51.7882H51.7355H51.6829H51.6302H51.5775H51.5248H51.4721H51.4194H51.3667H51.3141H51.2614H51.2087H51.156H51.1033H51.0506H50.9979H50.9453H50.8926H50.8399H50.7872H50.7345H50.6818H50.6291H50.5765H50.5238H50.4711H50.4184H50.3657H50.313H50.2603H50.2077H50.155H50.1023H50.0496H49.9969H49.9442H49.8915H49.8389H49.7862H49.7335H49.6808H49.6281H49.5754H49.5227H49.4701H49.4174H49.3647H49.312H49.2593H49.2066H49.1539H49.1013H49.0486H48.9959H48.9432H48.8905H48.8378H48.7851H48.7325H48.6798H48.6271H48.5744H48.5217H48.469H48.4163H48.3637H48.311H48.2583H48.2056H48.1529H48.1002H48.0475H47.9949H47.9422H47.8895H47.8368H47.7841H47.7314H47.6787H47.626H47.5734H47.5207H47.468H47.4153H47.3626H47.3099H47.2572H47.2308L46.6655 10.1906H73.7057C76.3948 10.1906 78.5744 12.3702 78.5744 15.0593V59.1878C78.5744 61.8769 76.3947 64.0567 73.7055 64.0567H50.2974H49.6997L49.6497 64.6523C49.3958 67.6781 49.6774 71.03 50.2511 74.046L50.3516 74.5745H50.8896H58.4163C59.1361 74.5745 59.7195 75.1579 59.7195 75.8776C59.7195 76.5974 59.1361 77.1807 58.4163 77.1807L23.0909 77.1809C22.3711 77.1809 21.7877 76.5975 21.7877 75.8778C21.7877 75.158 22.3711 74.5747 23.0909 74.5747H30.5951ZM43.369 3.42961C45.2171 4.49665 46.0339 6.66472 45.4692 8.62715L37.537 4.5293C38.9174 2.7979 41.3931 2.28885 43.369 3.42961ZM60.2549 34.192H60.2548H44.0691C43.5653 34.192 43.1566 33.783 43.1566 33.2795C43.1566 32.7759 43.5652 32.367 44.0691 32.367H60.2548C60.7597 32.367 61.1673 32.7755 61.1673 33.2795C61.1673 33.7836 60.7596 34.1921 60.2549 34.192ZM24.1473 39.4957L22.0465 40.7086H24.4723H60.2546C60.7586 40.7086 61.1671 41.1171 61.1671 41.6211C61.1671 42.125 60.7586 42.5336 60.2546 42.5336H21.319C20.815 42.5336 20.4065 42.125 20.4065 41.6211C20.4065 41.1621 20.7461 40.7812 21.1878 40.7179L21.7457 40.638V40.0745V34.5344L27.2431 37.7083L24.1473 39.4957Z" stroke="#435F9C" stroke-width="1.3"/>
</svg>
