<svg width="49" height="48" viewBox="0 0 49 48" fill="none" xmlns="http://www.w3.org/2000/svg">
<g clip-path="url(#clip0_14935_3684)">
<path d="M5.23439 31.2661C4.84607 31.2661 4.53125 31.5809 4.53125 31.9693C4.53125 32.3576 4.84607 32.6724 5.23439 32.6724H11.3752C11.7635 32.6724 12.0783 32.3576 12.0783 31.9693C12.0783 31.5809 11.7635 31.2661 11.3752 31.2661H5.23439Z" fill="#435F9C"/>
<path d="M47.7111 36.4108L44.7505 33.4502L44.7511 9.65879C44.7511 9.01264 44.2255 8.48688 43.5792 8.48688L36.8113 8.48641C34.1468 5.93597 30.403 4.44015 26.6796 4.45272C22.765 4.45272 19.2022 5.98688 16.5599 8.485L10.0189 8.48435C9.63054 8.48435 9.31563 8.79908 9.31563 9.1874C9.31563 9.57581 9.63036 9.89054 10.0187 9.89063L15.2532 9.8912C14.8647 10.3674 14.5057 10.8683 14.1782 11.391L1.90685 11.3902V9.89035L6.73735 9.89063C7.12567 9.89063 7.44049 9.57591 7.44049 9.18749C7.44049 8.79908 7.12576 8.48435 6.73735 8.48435L1.67237 8.48407C1.02614 8.48407 0.500469 9.00974 0.500469 9.65597L0.5 35.9045C0.5 36.5507 1.02567 37.0764 1.6719 37.0764L11.1998 37.077C11.5881 37.077 11.9029 36.7623 11.9029 36.3739C11.9029 35.9855 11.5882 35.6708 11.1998 35.6708L1.90629 35.6701L1.90685 12.7965L13.3996 12.7972C12.9479 13.7311 12.5927 14.7197 12.3451 15.7499H5.28137C4.89305 15.7499 4.57823 16.0647 4.57823 16.453V22.0782C4.57823 22.4665 4.89305 22.7813 5.28137 22.7813H12.3799C12.5454 23.4406 12.7553 24.0823 13.0064 24.7032H5.2345C4.84617 24.7032 4.53135 25.0181 4.53135 25.4064C4.53135 25.7947 4.84617 26.1095 5.2345 26.1095H13.6636C14.0135 26.7654 14.4109 27.3922 14.8523 27.9846H5.2345C4.84617 27.9846 4.53135 28.2994 4.53135 28.6877C4.53135 29.076 4.84617 29.3908 5.2345 29.3908H16.0427C18.7276 32.1907 22.5035 33.9365 26.6797 33.9365C29.2583 33.9365 31.754 33.2697 33.9522 32.0211L35.3581 33.427C35.6209 33.6898 35.9661 33.8212 36.3113 33.8212C36.6193 33.8212 36.9269 33.7158 37.1764 33.5066L39.3424 35.6726L14.4811 35.6709C14.0928 35.6709 13.778 35.9856 13.778 36.374C13.778 36.7624 14.0927 37.0771 14.4811 37.0771L17.5492 37.0773L16.9327 39.3264L15.7169 39.3262C13.969 39.3262 12.5471 40.7481 12.5471 42.4959V42.8417C12.5471 43.23 12.8618 43.5448 13.2501 43.5448L32.0003 43.5476H32.0004C32.1869 43.5476 32.3657 43.4735 32.4976 43.3417C32.6295 43.2098 32.7036 43.031 32.7036 42.8444V42.4986C32.7036 40.7508 31.2816 39.3289 29.5338 39.3289L28.3181 39.3286L27.7011 37.078L40.7488 37.0789L43.8959 40.2261C44.4056 40.7356 45.083 41.0162 45.8035 41.0162C46.5241 41.0162 47.2015 40.7356 47.7112 40.2261C48.763 39.1742 48.763 37.4627 47.7111 36.4108ZM31.2607 42.1412L13.9897 42.1386C14.1553 41.337 14.8667 40.7324 15.7167 40.7324L29.5335 40.7352C30.3836 40.7352 31.0951 41.3396 31.2607 42.1412ZM26.8597 39.3284L18.3908 39.3267L19.0074 37.0774L26.2428 37.078L26.8597 39.3284ZM43.3448 11.3929L39.1876 11.3926C38.8624 10.872 38.5051 10.3708 38.1162 9.89279L43.3448 9.89317V11.3929ZM5.98451 21.3751V17.1563H12.0794C11.9867 17.8228 11.9378 18.5031 11.9378 19.1947C11.9378 19.9355 11.9933 20.6634 12.0993 21.3751H5.98451ZM13.3441 19.1947C13.3441 11.8414 19.3264 5.85909 26.6797 5.85909C33.2984 5.85909 38.8399 10.5977 39.856 17.1265C39.9158 17.5103 40.2753 17.7732 40.6589 17.7131C41.0427 17.6534 41.3054 17.294 41.2455 16.9102C41.0223 15.476 40.5865 14.0918 39.9629 12.799L43.3447 12.7993L43.3443 32.0441L40.9917 29.6915C41.1954 29.4493 41.3069 29.1464 41.3069 28.8263C41.3069 28.4663 41.1666 28.1277 40.9121 27.8731L39.5067 26.4677C40.5695 24.597 41.2149 22.5031 41.3795 20.3166C41.4087 19.9295 41.1184 19.5918 40.7311 19.5627C40.344 19.5343 40.0064 19.8238 39.9772 20.2111C39.4569 27.119 33.616 32.5302 26.6797 32.5302C19.3264 32.5303 13.3441 26.548 13.3441 19.1947ZM35.1683 31.2485C35.7119 30.8648 36.2327 30.443 36.7261 29.9834C37.4798 29.2812 38.151 28.5102 38.7342 27.6841L39.8764 28.8263L36.3113 32.3914L35.1683 31.2485ZM46.7167 39.2317C46.4728 39.4756 46.1484 39.61 45.8035 39.61C45.4586 39.61 45.1342 39.4756 44.8903 39.2317L38.175 32.5164L40.0014 30.6899L46.7166 37.4052C47.2202 37.9088 47.2202 38.7281 46.7167 39.2317Z" fill="#435F9C"/>
<path d="M26.6802 7.26074C20.0997 7.26074 14.7461 12.6144 14.7461 19.1949C14.7461 22.9956 16.582 26.603 19.6571 28.8446C19.9709 29.0735 20.4108 29.0044 20.6396 28.6906C20.8683 28.3768 20.7994 27.9369 20.4855 27.7081C17.7723 25.7302 16.1524 22.5476 16.1524 19.1948C16.1524 13.3897 20.8752 8.66693 26.6802 8.66693C32.4853 8.66693 37.208 13.3897 37.208 19.1948C37.208 24.9998 32.4853 29.7226 26.6802 29.7226C25.4846 29.7226 24.3118 29.5239 23.1946 29.1321C22.828 29.0034 22.4269 29.1965 22.2984 29.5629C22.1699 29.9294 22.3628 30.3306 22.7292 30.4591C23.9964 30.9036 25.3256 31.1289 26.6802 31.1289C33.2607 31.1289 38.6143 25.7752 38.6143 19.1948C38.6143 12.6143 33.2608 7.26074 26.6802 7.26074Z" fill="#FF9B00"/>
<path d="M27.0139 17.3785C27.4022 17.3785 27.717 17.0636 27.717 16.6753C27.717 16.287 27.4022 15.9722 27.0139 15.9722H24.8906C24.5023 15.9722 24.1875 16.287 24.1875 16.6753V21.7142C24.1875 22.1025 24.5023 22.4174 24.8906 22.4174H27.0139C27.4022 22.4174 27.717 22.1025 27.717 21.7142C27.717 21.3259 27.4022 21.0111 27.0139 21.0111H25.5938V19.898H26.8573C27.2456 19.898 27.5604 19.5831 27.5604 19.1948C27.5604 18.8065 27.2456 18.4917 26.8573 18.4917H25.5938V17.3785H27.0139Z" fill="#FF9B00"/>
<path d="M20.2761 21.0343C19.7894 21.0343 19.3217 20.8389 19.025 20.5115C18.7642 20.2239 18.3196 20.2019 18.0318 20.4626C17.7439 20.7234 17.7222 21.168 17.9829 21.4559C18.5501 22.0817 19.3859 22.4406 20.276 22.4406C21.3804 22.4406 22.3083 21.7334 22.4823 20.7589C22.6136 20.0229 22.2831 19.0628 20.9609 18.5752C20.5361 18.4205 19.8393 18.1665 19.5745 18.0176C19.5004 17.9773 19.4683 17.9049 19.4789 17.8024C19.4936 17.6605 19.5994 17.4816 19.8523 17.4054C20.5326 17.2006 21.1697 17.7006 21.1897 17.7166C21.487 17.9628 21.9276 17.9236 22.1764 17.6274C22.4262 17.3302 22.3878 16.8867 22.0905 16.6367C22.0414 16.5955 20.8704 15.6299 19.4467 16.0588C18.6934 16.2857 18.157 16.9133 18.0799 17.6577C18.0107 18.3276 18.3255 18.9388 18.9018 19.2526C19.1915 19.4197 19.8559 19.6715 20.4741 19.8946C20.6356 19.9541 21.1579 20.1747 21.0977 20.5118C21.0522 20.7687 20.7322 21.0343 20.2761 21.0343Z" fill="#FF9B00"/>
<path d="M35.7729 19.1945C35.7729 17.4048 34.3168 15.9487 32.5271 15.9487C30.7373 15.9487 29.2812 17.4048 29.2812 19.1945C29.2812 20.9843 30.7373 22.4403 32.5271 22.4403C34.3168 22.4403 35.7729 20.9843 35.7729 19.1945ZM30.6875 19.1945C30.6875 18.1802 31.5127 17.355 32.5271 17.355C33.5414 17.355 34.3666 18.1802 34.3666 19.1945C34.3666 20.2088 33.5414 21.034 32.5271 21.034C31.5127 21.034 30.6875 20.2088 30.6875 19.1945Z" fill="#FF9B00"/>
</g>
<defs>
<clipPath id="clip0_14935_3684">
<rect width="48" height="48" fill="white" transform="translate(0.5)"/>
</clipPath>
</defs>
</svg>
