<svg width="81" height="80" viewBox="0 0 81 80" fill="none" xmlns="http://www.w3.org/2000/svg">
<g id="fi_5668363">
<g id="_x30_4">
<path id="Vector" d="M70.7871 70.9H71.6871V70V10V9.1H70.7871H25.7871H24.8871V10V27.5C24.8871 28.3837 24.1715 29.1 23.2871 29.1C22.4027 29.1 21.6871 28.3837 21.6871 27.5V7.5C21.6871 6.61626 22.4027 5.9 23.2871 5.9H73.2871C74.1715 5.9 74.8871 6.61626 74.8871 7.5V72.5C74.8871 73.3837 74.1715 74.1 73.2871 74.1H23.2871C22.4027 74.1 21.6871 73.3837 21.6871 72.5C21.6871 71.6163 22.4027 70.9 23.2871 70.9H70.7871Z" fill="#435F9C" stroke="white" stroke-width="1.8"/>
<path id="Vector_2" d="M10.2871 62.5V63H10.7871H28.2871H28.7871V62.5V37.5V37H28.2871H10.7871H10.2871V37.5V62.5ZM30.7871 67H8.28711C7.18166 67 6.28711 66.1045 6.28711 65V35C6.28711 33.8955 7.18166 33 8.28711 33H30.7871C31.8926 33 32.7871 33.8955 32.7871 35V65C32.7871 66.1045 31.8926 67 30.7871 67Z" fill="#FF9A00" stroke="white"/>
<path id="Vector_3" d="M63.2871 21.6H33.2871C32.4027 21.6 31.6871 20.8837 31.6871 20C31.6871 19.1163 32.4027 18.4 33.2871 18.4H63.2871C64.1715 18.4 64.8871 19.1163 64.8871 20C64.8871 20.8837 64.1715 21.6 63.2871 21.6Z" fill="#435F9C" stroke="white" stroke-width="1.8"/>
<path id="Vector_4" d="M63.2871 61.6H40.7871C39.9027 61.6 39.1871 60.8837 39.1871 60C39.1871 59.1163 39.9027 58.4 40.7871 58.4H63.2871C64.1715 58.4 64.8871 59.1163 64.8871 60C64.8871 60.8837 64.1715 61.6 63.2871 61.6Z" fill="#435F9C" stroke="white" stroke-width="1.8"/>
<path id="Vector_5" d="M63.2871 51.6H40.7871C39.9027 51.6 39.1871 50.8837 39.1871 50C39.1871 49.1163 39.9027 48.4 40.7871 48.4H63.2871C64.1715 48.4 64.8871 49.1163 64.8871 50C64.8871 50.8837 64.1715 51.6 63.2871 51.6Z" fill="#435F9C" stroke="white" stroke-width="1.8"/>
<path id="Vector_6" d="M63.2871 41.6H40.7871C39.9027 41.6 39.1871 40.8837 39.1871 40C39.1871 39.1163 39.9027 38.4 40.7871 38.4H63.2871C64.1715 38.4 64.8871 39.1163 64.8871 40C64.8871 40.8837 64.1715 41.6 63.2871 41.6Z" fill="#435F9C" stroke="white" stroke-width="1.8"/>
<path id="Vector_7" d="M63.2871 31.6H38.2871C37.4027 31.6 36.6871 30.8837 36.6871 30C36.6871 29.1163 37.4027 28.4 38.2871 28.4H63.2871C64.1715 28.4 64.8871 29.1163 64.8871 30C64.8871 30.8837 64.1715 31.6 63.2871 31.6Z" fill="#435F9C" stroke="white" stroke-width="1.8"/>
<path id="Vector_8" d="M23.2871 44.5H15.7871C14.6817 44.5 13.7871 43.6045 13.7871 42.5C13.7871 41.3955 14.6817 40.5 15.7871 40.5H23.2871C24.3926 40.5 25.2871 41.3955 25.2871 42.5C25.2871 43.6045 24.3926 44.5 23.2871 44.5Z" fill="#FF9A00" stroke="white"/>
<path id="Vector_9" d="M23.2871 52H15.7871C14.6817 52 13.7871 51.1045 13.7871 50C13.7871 48.8955 14.6817 48 15.7871 48H23.2871C24.3926 48 25.2871 48.8955 25.2871 50C25.2871 51.1045 24.3926 52 23.2871 52Z" fill="#FF9A00" stroke="white"/>
<path id="Vector_10" d="M23.2871 59.5H15.7871C14.6817 59.5 13.7871 58.6045 13.7871 57.5C13.7871 56.3955 14.6817 55.5 15.7871 55.5H23.2871C24.3926 55.5 25.2871 56.3955 25.2871 57.5C25.2871 58.6045 24.3926 59.5 23.2871 59.5Z" fill="#FF9A00" stroke="white"/>
</g>
</g>
</svg>
