<svg width="49" height="48" viewBox="0 0 49 48" fill="none" xmlns="http://www.w3.org/2000/svg">
<path d="M9.6375 39C9.6375 39.3866 9.3241 39.7 8.9375 39.7C8.5509 39.7 8.2375 39.3866 8.2375 39C8.2375 38.6134 8.5509 38.3 8.9375 38.3C9.3241 38.3 9.6375 38.6134 9.6375 39Z" fill="#435F9C" stroke="white" stroke-width="0.1"/>
<path d="M4.4375 16.45H4.3875V16.5V37.5C4.3875 37.9416 4.74589 38.3 5.1875 38.3H6.6875C7.07389 38.3 7.3875 38.6136 7.3875 39C7.3875 39.3864 7.07389 39.7 6.6875 39.7H5.1875C3.97236 39.7 2.9875 38.7151 2.9875 37.5V10.5C2.9875 9.28486 3.97236 8.3 5.1875 8.3H5.22357H5.26016H5.29727H5.3349H5.37305H5.41172H5.4509H5.49059H5.53078H5.57149H5.6127H5.65441H5.69662H5.73932H5.78252H5.82621H5.87039H5.91506H5.96022H6.00586H6.05197H6.09857H6.14564H6.19319H6.2412H6.28969H6.33864H6.38805H6.43793H6.48827H6.53906H6.59031H6.64201H6.69416H6.74676H6.79981H6.8533H6.90723H6.96159H7.0164H7.07163H7.1273H7.1834H7.23992H7.29687H7.35425H7.41204H7.47024H7.52887H7.58791H7.64735H7.70721H7.76747H7.82813H7.8892H7.95066H8.01252H8.07478H8.13743H8.20046H8.26389H8.3277H8.39189H8.45646H8.52141H8.58673H8.65243H8.7185H8.78494H8.85174H8.91891H8.98644H9.05432H9.12257H9.19117H9.26012H9.32942H9.39907H9.46906H9.5394H9.61008H9.68109H9.75245H9.82413H9.89615H9.96849H10.0412H10.1142H10.1875H10.2611H10.3351H10.4093H10.4839H10.5588H10.634H10.7095H10.7853H10.8614H10.9378H11.0146H11.0915H11.1688H11.2464H11.3243H11.4024H11.4809H11.5596H11.6386H11.7178H11.7974H11.8772H11.9573H12.0376H12.1182H12.1991H12.2802H12.3616H12.4432H12.5251H12.6073H12.6896H12.7723H12.8551H12.9383H13.0216H13.1052H13.189H13.2731H13.3574H13.4419H13.5266H13.6115H13.6967H13.7821H13.8677H13.9535H14.0395H14.1258H14.2122H14.2989H14.3857H14.4727H14.56H14.6474H14.735H14.8228H14.9108H14.999H15.0874H15.1759H15.2646H15.3535H15.4426H15.5318H15.6212H15.7108H15.8005H15.8904H15.9805H16.0707H16.1611H16.2516H16.3422H16.4331H16.524H16.6151H16.7064H16.7977H16.8892H16.9809H17.0727H17.1646H17.2566H17.3487H17.441H17.5334H17.6259H17.7186H17.8113H17.9041H17.9971H18.0901H18.1833H18.2766H18.3699H18.4634H18.5569H18.6506H18.7443H18.8381H18.932H19.026H19.12H19.2142H19.3084H19.4027H19.497H19.5915H19.6859H19.7805H19.8751H19.9698H20.0645H20.1593H20.2541H20.349H20.4439H20.5389H20.6339H20.7289H20.824H20.9191H21.0143H21.1095H21.2047H21.2999H21.3952H21.4905H21.5858H21.6811H21.7764H21.8718H21.9671H22.0625H22.1579H22.2532H22.3486H22.444H22.5393H22.6347H22.73H22.8254H22.9207H23.016H23.1113H23.2066H23.3018H23.397H23.4922H23.5874H23.6825H23.7776H23.8726H23.9676H24.0626H24.1575H24.2524H24.3472H24.442H24.5367H24.6314H24.726H24.8206H24.9151H25.0095H25.1038H25.1981H25.2923H25.3865H25.4805H25.5745H25.6684H25.7622H25.856H25.9496H26.0432H26.1366H26.23H26.3233H26.4164H26.5095H26.6024H26.6953H26.788H26.8807H26.9732H27.0656H27.1578H27.25H27.342H27.4339H27.5257H27.6174H27.7089H27.8003H27.8915H27.9826H28.0736H28.1644H28.2551H28.3456H28.4359H28.5262H28.6162H28.7061H28.7959H28.8854H28.9748H29.0641H29.1532H29.2421H29.3308H29.4193H29.5077H29.5959H29.6839H29.7717H29.8593H29.9468H30.034H30.1211H30.2079H30.2946H30.381H30.4672H30.5533H30.6391H30.7247H30.8101H30.8953H30.9802H31.065H31.1495H31.2338H31.3178H31.4017H31.4853H31.5686H31.6517H31.7346H31.8173H31.8997H31.9818H32.0637H32.1454H32.2267H32.3079H32.3888H32.4694H32.5497H32.6298H32.7096H32.7892H32.8684H32.9474H33.0262H33.1046H33.1828H33.2606H33.3382H33.4155H33.4925H33.5693H33.6457H33.7218H33.7976H33.8731H33.9483H34.0232H34.0978H34.1721H34.2461H34.3197H34.3931H34.4661H34.5387H34.6111H34.6831H34.7548H34.8262H34.8972H34.9679H35.0382H35.1083H35.1779H35.2472H35.3162H35.3848H35.4531H35.521H35.5885H35.6557H35.7225H35.7889H35.855H35.9207H35.9861H36.051H36.1156H36.1798H36.2436H36.3071H36.3701H36.4328H36.4951H36.5569H36.6184H36.6795H36.7402H36.8004H36.8603H36.9198H36.9788H37.0375H37.0957H37.1535H37.2109H37.2678H37.3244H37.3805H37.4362H37.4914H37.5462H37.6006H37.6546H37.7081H37.7611H37.8137H37.8659H37.9176H37.9689H38.0197H38.07H38.1199H38.1694H38.2183H38.2668H38.3149H38.3624H38.4095H38.4561H38.5023H38.5479H38.5931H38.6378H38.682H38.7257H38.7689H38.8116H38.8538H38.8956H38.9368H38.9775H39.0177H39.0574H39.0966H39.1353H39.1735H39.2111H39.2482H39.2849H39.3209H39.3565H39.3915H39.426H39.46H39.4934H39.5263H39.5586H39.5904H39.6217H39.6524H39.6825H39.7122H39.7412H39.7697H39.7976H39.825H39.8518H39.878H39.9037H39.9288H39.9533H39.9773H40.0007H40.0234H40.0457H40.0673H40.0883H40.1088H40.1286H40.1479H40.1665H40.1846H40.202H40.2189H40.2351H40.2508H40.2658H40.2802H40.294H40.3072H40.3198H40.3317H40.343H40.3537H40.3638H40.3732H40.382H40.3902H40.3977H40.4045H40.4108H40.4164H40.4213H40.4256H40.4292H40.4322H40.4345H40.4362H40.4372C40.4374 8.3 40.4375 8.3 40.4375 8.25V8.3C40.8239 8.3 41.1375 8.61361 41.1375 9C41.1375 9.38639 40.8239 9.7 40.4375 9.7H5.1875C4.74589 9.7 4.3875 10.0584 4.3875 10.5V15V15.05H4.4375H17.9375C18.3239 15.05 18.6375 15.3636 18.6375 15.75C18.6375 16.1364 18.3239 16.45 17.9375 16.45H4.4375Z" fill="#435F9C" stroke="white" stroke-width="0.1"/>
<path d="M44.9375 15.05H44.9875V15V10.5C44.9875 10.0584 44.6291 9.7 44.1875 9.7H42.6875C42.3011 9.7 41.9875 9.38639 41.9875 9C41.9875 8.61361 42.3011 8.3 42.6875 8.3H44.1875C45.4026 8.3 46.3875 9.28486 46.3875 10.5V37.5C46.3875 38.7151 45.4026 39.7 44.1875 39.7H11.1875C10.8011 39.7 10.4875 39.3864 10.4875 39C10.4875 38.6136 10.8011 38.3 11.1875 38.3H44.1875C44.6291 38.3 44.9875 37.9416 44.9875 37.5V16.5V16.45H44.9375H20.1875C19.8011 16.45 19.4875 16.1364 19.4875 15.75C19.4875 15.3636 19.8011 15.05 20.1875 15.05H44.9375Z" fill="#435F9C" stroke="white" stroke-width="0.1"/>
<path d="M8.1375 12.375C8.1375 12.9687 7.65621 13.45 7.0625 13.45C6.46879 13.45 5.9875 12.9687 5.9875 12.375C5.9875 11.7813 6.46879 11.3 7.0625 11.3C7.65621 11.3 8.1375 11.7813 8.1375 12.375Z" fill="#435F9C" stroke="white" stroke-width="0.1"/>
<path d="M11.8875 12.375C11.8875 12.9687 11.4062 13.45 10.8125 13.45C10.2188 13.45 9.7375 12.9687 9.7375 12.375C9.7375 11.7813 10.2188 11.3 10.8125 11.3C11.4062 11.3 11.8875 11.7813 11.8875 12.375Z" fill="#435F9C" stroke="white" stroke-width="0.1"/>
<path d="M15.6375 12.375C15.6375 12.9687 15.1562 13.45 14.5625 13.45C13.9688 13.45 13.4875 12.9687 13.4875 12.375C13.4875 11.7813 13.9688 11.3 14.5625 11.3C15.1562 11.3 15.6375 11.7813 15.6375 12.375Z" fill="#435F9C" stroke="white" stroke-width="0.1"/>
<path d="M28.325 24.15H28.5082L28.4721 23.9704C28.4252 23.7376 28.4 23.4963 28.4 23.25C28.4 23.0037 28.4252 22.7624 28.4721 22.5296L28.5082 22.35H28.325H26.75C26.4188 22.35 26.15 22.0812 26.15 21.75C26.15 21.4188 26.4188 21.15 26.75 21.15H29.0007H29.0757L29.1207 21.0901C29.7776 20.2157 30.8237 19.65 32 19.65C33.9872 19.65 35.6 21.2628 35.6 23.25C35.6 25.2372 33.9872 26.85 32 26.85C30.8237 26.85 29.7776 26.2843 29.1207 25.4099L29.0757 25.35H29.0007H15.875C14.7158 25.35 13.775 24.4092 13.775 23.25C13.775 22.0908 14.7158 21.15 15.875 21.15H24.5C24.8312 21.15 25.1 21.4188 25.1 21.75C25.1 22.0812 24.8312 22.35 24.5 22.35H15.875C15.3782 22.35 14.975 22.7532 14.975 23.25C14.975 23.7468 15.3782 24.15 15.875 24.15H28.325ZM34.4 23.25C34.4 21.9252 33.3248 20.85 32 20.85C30.6752 20.85 29.6 21.9252 29.6 23.25C29.6 24.5748 30.6752 25.65 32 25.65C33.3248 25.65 34.4 24.5748 34.4 23.25Z" fill="#FF9B00" stroke="white" stroke-width="0.3"/>
<path d="M19.9993 33.6H19.9243L19.8793 33.6599C19.2224 34.5343 18.1763 35.1 17 35.1C15.0128 35.1 13.4 33.4872 13.4 31.5C13.4 29.5128 15.0128 27.9 17 27.9C18.1763 27.9 19.2224 28.4657 19.8793 29.3401L19.9243 29.4H19.9993H33.125C34.2842 29.4 35.225 30.3408 35.225 31.5C35.225 32.6592 34.2842 33.6 33.125 33.6H31.25C30.9188 33.6 30.65 33.3312 30.65 33C30.65 32.6688 30.9188 32.4 31.25 32.4H33.125C33.6218 32.4 34.025 31.9968 34.025 31.5C34.025 31.0032 33.6218 30.6 33.125 30.6H20.675H20.4918L20.5279 30.7796C20.5748 31.0124 20.6 31.2537 20.6 31.5C20.6 31.7463 20.5748 31.9876 20.5279 32.2204L20.4918 32.4H20.675H29C29.3312 32.4 29.6 32.6688 29.6 33C29.6 33.3312 29.3312 33.6 29 33.6H19.9993ZM19.4 31.5C19.4 30.1752 18.3248 29.1 17 29.1C15.6752 29.1 14.6 30.1752 14.6 31.5C14.6 32.8248 15.6752 33.9 17 33.9C18.3248 33.9 19.4 32.8248 19.4 31.5Z" fill="#FF9B00" stroke="white" stroke-width="0.3"/>
</svg>
