<svg width="49" height="48" viewBox="0 0 49 48" fill="none" xmlns="http://www.w3.org/2000/svg">
<path d="M21.0859 19.7658L21.086 19.7659C21.3649 20.2547 21.2824 20.8705 20.884 21.2683L20.8839 21.2684L15.7687 26.3836C15.5282 26.6241 15.2079 26.7499 14.8841 26.7499C14.6724 26.7499 14.4597 26.6962 14.2662 26.5858L14.266 26.5857C8.25776 23.1611 4.92237 18.1235 3.76473 10.6922C3.70373 10.2979 3.83438 9.89813 4.11626 9.61619C4.39928 9.33386 4.80198 9.20297 5.19192 9.26441L5.19235 9.26448C12.6237 10.4221 17.6613 13.7575 21.0859 19.7658ZM14.5196 23.8202L14.6889 23.9283L14.8309 23.7863L18.2865 20.3307L18.4285 20.1887L18.3204 20.0194C15.6553 15.8457 12.055 13.3503 6.95137 12.1506L6.55842 12.0582L6.65079 12.4511C7.85056 17.5548 10.3459 21.1551 14.5196 23.8202Z" fill="#FF9B00" stroke="white" stroke-width="0.5"/>
<path d="M20.6162 27.8838C20.1279 27.3955 20.1279 26.6045 20.6162 26.1162C21.1045 25.6279 21.8955 25.6279 22.3838 26.1162L31.3838 35.1162C31.8721 35.6045 31.8721 36.3955 31.3838 36.8838C31.1395 37.128 30.8201 37.25 30.5 37.25C30.1799 37.25 29.8605 37.128 29.6162 36.8838L20.6162 27.8838Z" fill="#FF9B00" stroke="white" stroke-width="0.5"/>
<path d="M31.3838 30.8838C31.1395 31.128 30.8201 31.25 30.5 31.25C30.1799 31.25 29.8605 31.128 29.6162 30.8838L23.6162 24.8838C23.1279 24.3955 23.1279 23.6045 23.6162 23.1162C24.1045 22.6279 24.8955 22.6279 25.3838 23.1162L31.3838 29.1162C31.8721 29.6045 31.8721 30.3955 31.3838 30.8838Z" fill="#FF9B00" stroke="white" stroke-width="0.5"/>
<path d="M25.3838 36.8838C25.1395 37.128 24.8201 37.25 24.5 37.25C24.1799 37.25 23.8605 37.128 23.6162 36.8838L17.6162 30.8838C17.1279 30.3955 17.1279 29.6045 17.6162 29.1162C18.1045 28.6279 18.8955 28.6279 19.3838 29.1162L25.3838 35.1162C25.8721 35.6045 25.8721 36.3955 25.3838 36.8838Z" fill="#FF9B00" stroke="white" stroke-width="0.5"/>
<path d="M29.15 6V5.85H29H23C22.0903 5.85 21.35 6.59025 21.35 7.5V13.5C21.35 14.2455 20.7455 14.85 20 14.85C19.2545 14.85 18.65 14.2455 18.65 13.5V7.5C18.65 5.1014 20.6014 3.15 23 3.15H41C43.3986 3.15 45.35 5.1014 45.35 7.5V40.5C45.35 42.8986 43.3986 44.85 41 44.85H23C20.6014 44.85 18.65 42.8986 18.65 40.5V37.5C18.65 36.7545 19.2545 36.15 20 36.15C20.7455 36.15 21.35 36.7545 21.35 37.5V40.5C21.35 41.4097 22.0903 42.15 23 42.15H41C41.9105 42.15 42.65 41.4097 42.65 40.5V7.5C42.65 6.5903 41.9105 5.85 41 5.85H35H34.85V6C34.85 7.57167 33.571 8.85 32 8.85C30.429 8.85 29.15 7.57167 29.15 6Z" fill="#435F9C" stroke="white" stroke-width="0.3"/>
</svg>
