<svg width="49" height="48" viewBox="0 0 49 48" fill="none" xmlns="http://www.w3.org/2000/svg">
<g clip-path="url(#clip0_14935_3741)">
<path d="M14.8768 14.1231C15.0721 13.9278 15.0721 13.6114 14.8768 13.4162L12.0822 10.623C11.8868 10.4277 11.5703 10.4277 11.375 10.623C11.1797 10.8183 11.1797 11.1347 11.375 11.3299L14.1696 14.1231C14.365 14.3183 14.6815 14.3183 14.8768 14.1231Z" fill="#FF9B00"/>
<path d="M16.9434 8.68845V10.699C16.9434 10.9753 17.167 11.1989 17.4435 11.1989C17.72 11.1989 17.9437 10.9754 17.9437 10.699V8.68845C17.9437 8.41214 17.72 8.18848 17.4435 8.18848C17.167 8.18848 16.9434 8.41205 16.9434 8.68845Z" fill="#FF9B00"/>
<path d="M9.44155 16.1899C9.16515 16.1899 8.94141 16.4141 8.94141 16.6901C8.94141 16.9665 9.16563 17.1902 9.44155 17.1902L11.4528 17.1897C11.7292 17.1897 11.9529 16.9655 11.9529 16.6896C11.9529 16.4132 11.7287 16.1895 11.4528 16.1895L9.44155 16.1899Z" fill="#FF9B00"/>
<path d="M35.2793 34.5171C35.084 34.7124 35.084 35.0288 35.2793 35.224L38.0739 38.0172C38.2693 38.2125 38.5858 38.2125 38.7811 38.0172C38.9764 37.8219 38.9764 37.5055 38.7811 37.3103L35.9865 34.5171C35.7911 34.3218 35.4746 34.3218 35.2793 34.5171Z" fill="#FF9B00"/>
<path d="M32.2109 37.9409V39.9514C32.2109 40.2277 32.4346 40.4514 32.7111 40.4514C32.9876 40.4514 33.2112 40.2278 33.2112 39.9514V37.9409C33.2112 37.6646 32.9876 37.4409 32.7111 37.4409C32.4346 37.4409 32.2109 37.6646 32.2109 37.9409Z" fill="#FF9B00"/>
<path d="M41.2147 31.9503C41.2147 31.6739 40.9904 31.4502 40.7145 31.4502L38.7033 31.4507C38.4269 31.4507 38.2031 31.6749 38.2031 31.9508C38.2031 32.2272 38.4273 32.451 38.7033 32.451L40.7145 32.4505C40.991 32.4505 41.2147 32.2263 41.2147 31.9503Z" fill="#FF9B00"/>
<path d="M32.5153 32.06L32.5284 32.037C34.9215 27.8376 34.3982 22.3162 30.7404 18.6599L30.7403 18.6598C29.4902 17.4064 27.9506 16.4671 26.2684 15.9293L23.6867 18.5101L23.6867 18.5101C23.2447 18.9517 22.8097 19.5991 22.5544 20.2436C24.4239 20.1532 26.1182 20.8714 27.3197 22.0828C29.7913 24.5546 29.7513 28.5462 27.3179 30.9787L17.7556 40.5372C15.3187 42.9732 11.3561 43.0116 8.86194 40.5389L8.86166 40.5386C6.39613 38.0749 6.41017 34.0831 8.86024 31.635L15.3463 25.1513C14.8209 23.0937 14.8293 20.7491 15.5144 18.5059C15.5617 18.3505 15.6113 18.1956 15.6642 18.0414C15.4328 18.2372 15.2092 18.4424 14.9938 18.6564L32.5153 32.06ZM32.5153 32.06V32.0602C32.0185 32.9319 31.4212 33.7188 30.7405 34.3997C30.7405 34.3997 30.7405 34.3997 30.7405 34.3997L21.1782 43.9581C16.829 48.3058 9.78515 48.309 5.43803 43.9534L5.43794 43.9533C1.09193 39.6088 1.09268 32.5575 5.43794 28.2138L5.43796 28.2138L14.9936 18.6566L32.5153 32.06ZM45.5663 21.2754L45.567 21.2747C50.3816 16.4618 50.382 8.65168 45.5674 3.83896C40.7543 -0.984809 32.9515 -0.986332 28.1295 3.83306L28.2002 3.90379L28.1295 3.83307L18.5672 13.392C17.8406 14.1183 17.2046 14.9536 16.6689 15.8702C15.7519 16.4069 14.903 17.0551 14.1464 17.8063L14.1462 17.8065L4.58929 27.3654C4.58928 27.3654 4.58927 27.3654 4.58927 27.3654C-0.225322 32.1783 -0.225705 39.9885 4.58881 44.8012C9.40259 49.6244 17.2057 49.6259 22.0267 44.8066L31.5891 35.2481L31.5891 35.2481C32.315 34.5219 32.9511 33.6874 33.4869 32.7701C34.6942 32.0647 35.3772 31.4846 36.9151 29.9462C37.3505 29.5105 37.8546 28.9979 38.4589 28.3835C40.0011 26.8154 42.1956 24.5839 45.5663 21.2754ZM32.5153 32.0865C32.5153 32.0872 32.5153 32.0868 32.5153 32.0856V32.0865ZM32.5439 32.017C32.5444 32.0165 32.5445 32.0163 32.5441 32.0167L32.5439 32.017ZM23.6869 25.711L23.6868 25.7108C22.5683 24.5924 22.0516 23.0338 22.2481 21.4744C23.8854 21.2776 25.4054 21.857 26.4691 22.929L26.4694 22.9293C27.5857 24.0455 28.1026 25.6004 27.9092 27.1567C26.338 27.3434 24.7907 26.8187 23.6869 25.711ZM40.4473 16.1567L40.4473 16.1568L34.4086 22.1981C33.7918 20.5537 32.8297 19.0518 31.5896 17.812C30.3492 16.5674 28.8493 15.604 27.2098 14.9881L33.2491 8.95094C35.2181 6.98356 38.4194 6.94384 40.4474 8.95111C42.4346 10.9378 42.4354 14.1692 40.4473 16.1567ZM41.2939 8.10058L41.2936 8.10024C38.7968 5.62897 34.8381 5.66586 32.4004 8.10258L32.4711 8.17331L32.4004 8.10258L22.8381 17.6615C20.4043 20.0944 20.3644 24.0852 22.8371 26.5588C24.0961 27.8225 25.8079 28.4849 27.6015 28.3969C27.3697 28.9798 26.958 29.6419 26.4694 30.1303L23.8872 32.7111C22.2059 32.1733 20.6658 31.2339 19.4158 29.9801L19.4157 29.98C15.7856 26.3498 15.2279 20.818 17.6262 16.606C17.6658 16.5455 17.7119 16.4686 17.7668 16.3768C18.0294 15.9384 18.4942 15.1624 19.4157 14.2404C19.4157 14.2404 19.4157 14.2404 19.4157 14.2404L28.9781 4.68143C33.3277 0.334407 40.3704 0.329507 44.7182 4.68675L44.7183 4.68684C49.0643 9.03128 49.0636 16.0825 44.7184 20.4262C40.8737 24.2572 38.5677 26.5728 37.1326 28.0138C36.7078 28.4403 36.3594 28.7902 36.0699 29.0801C35.0953 30.0561 34.7912 30.3502 34.4957 30.5982C35.2589 28.425 35.4151 25.8835 34.8145 23.4896L41.2959 17.0052C41.2959 17.0052 41.296 17.0052 41.296 17.0052C43.7516 14.5509 43.7516 10.5568 41.2939 8.10058ZM18.5666 30.8276C19.8074 32.0722 21.3073 33.0358 22.9463 33.6519L16.9072 39.6886C14.9452 41.6489 11.7418 41.7025 9.70895 39.6886C7.72159 37.7029 7.72076 34.4699 9.70895 32.4833L9.63827 32.4126L9.70897 32.4833L15.7515 26.4429C16.3639 28.0844 17.3244 29.5859 18.5666 30.8276Z" fill="#435F9C" stroke="#435F9C" stroke-width="0.2"/>
</g>
<defs>
<clipPath id="clip0_14935_3741">
<rect width="48" height="48" fill="white" transform="translate(0.75)"/>
</clipPath>
</defs>
</svg>
