<svg width="49" height="48" viewBox="0 0 49 48" fill="none" xmlns="http://www.w3.org/2000/svg">
<g clip-path="url(#clip0_14935_3637)">
<path d="M4.9625 41.2971V41.1471H4.8125H3.77347C2.05135 41.1471 0.65 39.7457 0.65 38.0235V4.6875C0.65 2.18566 2.68566 0.15 5.1875 0.15H43.8125C46.3143 0.15 48.35 2.18566 48.35 4.6875V38.0235C48.35 39.7457 46.9487 41.1471 45.2265 41.1471H44.1875H44.0375V41.2971V46.125V46.275H44.1875H47.5625C47.9974 46.275 48.35 46.6276 48.35 47.0625C48.35 47.4974 47.9974 47.85 47.5625 47.85H1.4375C1.00257 47.85 0.65 47.4974 0.65 47.0625C0.65 46.6276 1.00257 46.275 1.4375 46.275H4.8125H4.9625V46.125V41.2971ZM46.625 6.9H46.775V6.75V4.6875C46.775 3.05384 45.4462 1.725 43.8125 1.725H5.1875C3.55384 1.725 2.225 3.05384 2.225 4.6875V6.75478V6.92053L2.38993 6.90404C2.41624 6.90141 2.44265 6.9 2.46913 6.9H46.625ZM10.8125 46.275H10.9625V46.125V37.6875V37.5375H10.8125H6.6875H6.5375V37.6875V46.125V46.275H6.6875H10.8125ZM21.3125 46.275H21.4625V46.125V27.3218V27.1718H21.3125H17.1875H17.0375V27.3218V46.125V46.275H17.1875H21.3125ZM31.8125 46.275H31.9625V46.125V35.25V35.1H31.8125H27.6875H27.5375V35.25V46.125V46.275H27.6875H31.8125ZM38.1875 25.7719H38.0375V25.9219V29.7187C38.0375 30.1535 37.6849 30.5062 37.25 30.5062C36.8151 30.5062 36.4625 30.1535 36.4625 29.7187V24.9844C36.4625 24.5495 36.8151 24.1969 37.25 24.1969H43.25C43.6849 24.1969 44.0375 24.5495 44.0375 24.9844V39.4221V39.5721H44.1875H45.2265C46.0805 39.5721 46.775 38.8775 46.775 38.0235V8.625V8.475H46.625H2.46913C2.44265 8.475 2.41624 8.47359 2.38993 8.47096L2.225 8.45447V8.62022V38.0235C2.225 38.8775 2.91943 39.5721 3.77347 39.5721H4.8125H4.9625V39.4221V36.75C4.9625 36.3151 5.31507 35.9625 5.75 35.9625H11.75C12.1849 35.9625 12.5375 36.3151 12.5375 36.75V46.125V46.275H12.6875H15.3125H15.4625V46.125V26.3843C15.4625 25.9494 15.8151 25.5968 16.25 25.5968H22.25C22.6849 25.5968 23.0375 25.9494 23.0375 26.3843V46.125V46.275H23.1875H25.8125H25.9625V46.125V34.3125C25.9625 33.8776 26.3151 33.525 26.75 33.525H32.75C33.1849 33.525 33.5375 33.8776 33.5375 34.3125V46.125V46.275H33.6875H36.3125H36.4625V46.125V36.0234C36.4625 35.5886 36.8151 35.2359 37.25 35.2359C37.6849 35.2359 38.0375 35.5886 38.0375 36.0234V46.125V46.275H38.1875H42.3125H42.4625V46.125V25.9219V25.7719H42.3125H38.1875Z" fill="#435F9C" stroke="white" stroke-width="0.3"/>
<path d="M21.3184 3.525H42.4998C42.9347 3.525 43.2873 3.87765 43.2873 4.3125C43.2873 4.74735 42.9347 5.1 42.4998 5.1H21.3184C20.8834 5.1 20.5309 4.74735 20.5309 4.3125C20.5309 3.87765 20.8834 3.525 21.3184 3.525Z" fill="#435F9C" stroke="white" stroke-width="0.3"/>
<path d="M9.69325 3.75575L9.69328 3.75573C9.83953 3.6094 10.0432 3.525 10.25 3.525C10.4567 3.525 10.6605 3.60947 10.8067 3.75575C10.953 3.90204 11.0375 4.10577 11.0375 4.3125C11.0375 4.51923 10.953 4.72295 10.8068 4.86912L10.8067 4.86918C10.6604 5.01553 10.4567 5.1 10.25 5.1C10.0433 5.1 9.83956 5.01553 9.69328 4.86918L9.69323 4.86912C9.54697 4.72295 9.4625 4.51923 9.4625 4.3125C9.4625 4.10577 9.54697 3.90204 9.69325 3.75575Z" fill="#435F9C" stroke="white" stroke-width="0.3"/>
<path d="M5.94325 3.75575L5.94328 3.75573C6.08953 3.6094 6.29324 3.525 6.5 3.525C6.70673 3.525 6.91046 3.60947 7.05675 3.75575C7.20303 3.90204 7.2875 4.10577 7.2875 4.3125C7.2875 4.51923 7.20303 4.72295 7.05677 4.86912L7.05672 4.86918C6.91044 5.01553 6.70672 5.1 6.5 5.1C6.29328 5.1 6.08956 5.01553 5.94328 4.86918L5.94323 4.86912C5.79697 4.72295 5.7125 4.51923 5.7125 4.3125C5.7125 4.10577 5.79697 3.90204 5.94325 3.75575Z" fill="#435F9C" stroke="white" stroke-width="0.3"/>
<path d="M13.4433 3.75575L13.4433 3.75573C13.5895 3.6094 13.7932 3.525 14 3.525C14.2076 3.525 14.4104 3.60941 14.5567 3.75575C14.703 3.90204 14.7875 4.10577 14.7875 4.3125C14.7875 4.51923 14.703 4.72295 14.5568 4.86912L14.5567 4.86918C14.4104 5.01553 14.2067 5.1 14 5.1C13.7933 5.1 13.5896 5.01553 13.4433 4.86918L13.4432 4.86912C13.297 4.72295 13.2125 4.51923 13.2125 4.3125C13.2125 4.10577 13.297 3.90204 13.4433 3.75575Z" fill="#435F9C" stroke="white" stroke-width="0.3"/>
<path d="M37.9128 32.3972C37.7384 32.2219 37.4966 32.1226 37.25 32.1226C37.0034 32.1226 36.7616 32.222 36.5872 32.3972C36.4128 32.5716 36.3125 32.8135 36.3125 33.0601C36.3125 33.3066 36.4128 33.5485 36.5872 33.7229C36.7616 33.8972 37.0034 33.9976 37.25 33.9976C37.4966 33.9976 37.7384 33.8972 37.9128 33.7229C38.0872 33.5485 38.1875 33.3066 38.1875 33.0601C38.1875 32.8126 38.0872 32.5716 37.9128 32.3972Z" fill="#435F9C"/>
<path d="M37.625 18.205L37.7156 18.1144L37.6402 18.0108C37.2535 17.4788 37.0248 16.8254 37.0248 16.1191C37.0248 14.341 38.4716 12.8941 40.2498 12.8941C42.0279 12.8941 43.4748 14.341 43.4748 16.1191C43.4748 17.8973 42.0279 19.3441 40.2498 19.3441C39.8323 19.3441 39.4335 19.2636 39.0669 19.1183L38.9752 19.0819L38.9055 19.1516L32.5113 25.5459L32.4314 25.6257L32.4861 25.7246C32.7417 26.1863 32.8877 26.7166 32.8877 27.2808C32.8877 29.059 31.4408 30.5058 29.6627 30.5058C27.8845 30.5058 26.4377 29.059 26.4377 27.2808C26.4377 26.6615 26.6134 26.0831 26.9172 25.5912L26.9796 25.4903L26.8957 25.4064L20.4569 18.9677L20.377 18.8878L20.2782 18.9425C19.8165 19.1981 19.2862 19.344 18.722 19.344C18.2159 19.344 17.737 19.2265 17.3104 19.018L17.2142 18.9709L17.1385 19.0466L11.5362 24.6489L11.4563 24.7288L11.511 24.8276C11.7665 25.2894 11.9125 25.8197 11.9125 26.3839C11.9125 28.1621 10.4657 29.6089 8.6875 29.6089C6.90931 29.6089 5.4625 28.1621 5.4625 26.3839C5.4625 24.6057 6.90931 23.1589 8.6875 23.1589C9.25164 23.1589 9.78192 23.3049 10.2437 23.5604L10.3425 23.6151L10.4224 23.5353L15.9586 17.9991L16.0427 17.915L15.98 17.814C15.6741 17.3211 15.497 16.7407 15.497 16.1191C15.497 14.341 16.9438 12.8941 18.722 12.8941C20.5002 12.8941 21.947 14.341 21.947 16.1191C21.947 16.6834 21.8011 17.2137 21.5455 17.6754L21.4908 17.7742L21.5707 17.8541L28.0731 24.3565L28.149 24.4324L28.2453 24.3851C28.6734 24.1747 29.1542 24.056 29.6627 24.056C30.2269 24.056 30.7572 24.202 31.2189 24.4575L31.3178 24.5122L31.3976 24.4324L37.625 18.205ZM7.03759 26.3841C7.03759 27.294 7.77769 28.0341 8.68759 28.0341C9.5975 28.0341 10.3376 27.294 10.3376 26.3841C10.3376 25.4742 9.5975 24.7341 8.68759 24.7341C7.77769 24.7341 7.03759 25.4742 7.03759 26.3841ZM17.0721 16.1191C17.0721 17.029 17.8122 17.7691 18.7221 17.7691C19.632 17.7691 20.3721 17.029 20.3721 16.1191C20.3721 15.2092 19.632 14.4691 18.7221 14.4691C17.8122 14.4691 17.0721 15.2092 17.0721 16.1191ZM28.0128 27.281C28.0128 28.1909 28.7528 28.931 29.6628 28.931C30.5727 28.931 31.3128 28.1909 31.3128 27.281C31.3128 26.3711 30.5727 25.631 29.6628 25.631C28.7528 25.631 28.0128 26.3711 28.0128 27.281ZM38.5998 16.1191C38.5998 17.029 39.3398 17.7691 40.2498 17.7691C41.1597 17.7691 41.8998 17.029 41.8998 16.1191C41.8998 15.2092 41.1597 14.4691 40.2498 14.4691C39.3398 14.4691 38.5998 15.2092 38.5998 16.1191Z" fill="#FF9B00" stroke="white" stroke-width="0.3"/>
<path d="M13.1855 12.1953L13.1855 12.1953C13.3317 12.049 13.5354 11.9645 13.7432 11.9645C13.9496 11.9645 14.1525 12.0488 14.3001 12.1955C14.4462 12.3416 14.5307 12.5453 14.5307 12.752C14.5307 12.9586 14.4462 13.1623 14.3 13.3086C14.1526 13.4553 13.9496 13.5395 13.7432 13.5395C13.5357 13.5395 13.3328 13.4551 13.1853 13.3086C13.0394 13.1626 12.9557 12.959 12.9557 12.752C12.9557 12.5448 13.0395 12.3412 13.1855 12.1953Z" fill="#435F9C" stroke="white" stroke-width="0.3"/>
<path d="M5.75 11.9645H10.25C10.6849 11.9645 11.0375 12.3171 11.0375 12.752C11.0375 13.1868 10.6849 13.5395 10.25 13.5395H5.75C5.31507 13.5395 4.9625 13.1868 4.9625 12.752C4.9625 12.3171 5.31507 11.9645 5.75 11.9645Z" fill="#435F9C" stroke="white" stroke-width="0.3"/>
<path d="M5.75 16.4645H10.25C10.6849 16.4645 11.0375 16.8171 11.0375 17.252C11.0375 17.6868 10.6849 18.0395 10.25 18.0395H5.75C5.31507 18.0395 4.9625 17.6868 4.9625 17.252C4.9625 16.8171 5.31507 16.4645 5.75 16.4645Z" fill="#435F9C" stroke="white" stroke-width="0.3"/>
</g>
<defs>
<clipPath id="clip0_14935_3637">
<rect width="48" height="48" fill="white" transform="translate(0.5)"/>
</clipPath>
</defs>
</svg>
