<svg width="81" height="80" viewBox="0 0 81 80" fill="none" xmlns="http://www.w3.org/2000/svg">
<g clip-path="url(#clip0_14935_4106)">
<path d="M16.1458 55.0431L20.3181 50.8706C22.7631 54.3905 25.8228 57.4502 29.3428 59.8952L25.1703 64.0676L16.1458 55.0431Z" stroke="#435F9C" stroke-width="1.3"/>
<path d="M2.73196 77.4808L2.73195 77.4808C0.239878 74.9888 0.239859 70.9485 2.73196 68.4564L11.9117 59.2767L20.9362 68.3012L11.7565 77.4808L12.2161 77.9404L11.7565 77.4808C9.26438 79.9729 5.22406 79.9729 2.73196 77.4808Z" stroke="#435F9C" stroke-width="1.3"/>
<path d="M56.7754 28.125C55.483 28.125 54.4316 29.1764 54.4316 30.4688C54.4316 31.7611 55.483 32.8125 56.7754 32.8125C58.0677 32.8125 59.1191 31.7611 59.1191 30.4688C59.1191 29.1764 58.0677 28.125 56.7754 28.125Z" fill="#FF9A00"/>
<path d="M49.7441 11.7188C39.4054 11.7188 30.9941 20.13 30.9941 30.4688C30.9941 40.8075 39.4054 49.2188 49.7441 49.2188C60.0829 49.2188 68.4941 40.8075 68.4941 30.4688C68.4941 20.13 60.083 11.7188 49.7441 11.7188ZM56.7754 37.5C53.7199 37.5 51.1148 35.5405 50.1473 32.8125H45.0566V37.5H40.3691V32.8125H35.6816V28.125H50.1473C51.1148 25.397 53.7199 23.4375 56.7754 23.4375C60.6524 23.4375 63.8066 26.5917 63.8066 30.4688C63.8066 34.3458 60.6524 37.5 56.7754 37.5Z" fill="#FF9A00"/>
<path d="M19.9254 30.4688C19.9254 14.0004 33.2758 0.65 49.7441 0.65C66.2128 0.65 79.5629 14.0004 79.5629 30.4688C79.5629 46.9371 66.2127 60.2875 49.7441 60.2875C33.2756 60.2875 19.9254 46.9371 19.9254 30.4688ZM25.6566 30.4688C25.6566 43.7512 36.4617 54.5563 49.7441 54.5563C63.0267 54.5563 73.8316 43.7512 73.8316 30.4688C73.8316 17.1863 63.0266 6.38125 49.7441 6.38125C36.4617 6.38125 25.6566 17.1863 25.6566 30.4688Z" stroke="#435F9C" stroke-width="1.3"/>
</g>
<defs>
<clipPath id="clip0_14935_4106">
<rect width="80" height="80" fill="white" transform="translate(0.212891)"/>
</clipPath>
</defs>
</svg>
